<?xml version="1.0" encoding="utf-8"?>
<!-- Generator: Adobe Illustrator 19.0.0, SVG Export Plug-In . SVG Version: 6.00 Build 0)  -->
<svg version="1.1" id="Capa_1" xmlns="http://www.w3.org/2000/svg" xmlns:xlink="http://www.w3.org/1999/xlink" x="0px" y="0px"
	 viewBox="-49 141 512 512" style="enable-background:new -49 141 512 512;" xml:space="preserve">
<style type="text/css">
	.st0{fill:#777777;}
	.st1{fill:#D1A570;}
</style>
<g>
	<g>
		<path class="st0" d="M-7.3,267.7v-25.3c0-11.7,8.6-21.4,19.8-23.1c3-0.5,307.5-0.4,309.9,0c11.2,1.7,19.8,11.4,19.8,23.1v25.3
			H-7.3z M356.8,411.8c2,0,3.6-1.6,3.6-3.6V242.5c0-11.4-4.6-21.8-12.2-29.4c-7.5-7.5-17.9-12.2-29.3-12.2
			c-319.5,0.3-303.5-0.7-311.2,0.9c-18.9,3.9-33.2,20.6-33.2,40.7v229.8c0,22.9,18.6,41.5,41.5,41.5h233.3c5,0,9.1-4.1,9.1-9.1l0,0
			c0-5-4.1-9.1-9.1-9.1H16c-12.9,0-23.4-10.5-23.4-23.4v-18.9l35.2-27.7c3.9-3.1,4.6-8.8,1.5-12.8c-3.1-3.9-8.8-4.6-12.8-1.5
			l-23.8,18.9V285.9h349.5v100.8l-11-7c-12.5-8-28.4-7.5-40.4,1.1l-41.1,29.5c-9,6.5-21.4,6.1-30-1l-64.4-53
			c-19.6-16.2-48.4-16.4-68.3-0.6l-15.7,12.4c-3.9,3.1-4.6,8.8-1.5,12.8c3.1,3.9,8.8,4.6,12.8,1.5L98.3,370
			c13.3-10.5,32.4-10.3,45.5,0.4l64.4,53c15,12.3,36.4,13,52.1,1.7l41.1-29.4c6-4.3,13.9-4.5,20.1-0.6l20.8,13.2l0,0
			c0,2,1.6,3.6,3.6,3.6L356.8,411.8z"/>
		<path class="st1" d="M317.9,243.4c0,5-4.1,9.1-9.1,9.1h-28.2c-5,0-9.1-4.1-9.1-9.1s4.1-9.1,9.1-9.1h28.2
			C313.8,234.4,317.9,238.4,317.9,243.4z"/>
		<path class="st1" d="M58.4,397c0,5-4.1,9.1-9.1,9.1s-9.1-4.1-9.1-9.1s4.1-9.1,9.1-9.1l0,0C54.3,387.9,58.4,392,58.4,397z"/>
		<path class="st1" d="M243.7,302.6c-20.6,0-37.4,16.8-37.4,37.4s16.8,37.4,37.4,37.4s37.4-16.8,37.4-37.4S264.3,302.6,243.7,302.6z
			 M243.7,359.2c-10.6,0-19.2-8.6-19.2-19.2s8.6-19.2,19.2-19.2c10.6,0,19.2,8.6,19.2,19.2S254.3,359.2,243.7,359.2z"/>
	</g>
	<path class="st1" d="M360.3,416.8h-18.2c-42.3,4.3-74.7,38-78.8,78.8v18.2c4.6,44.5,42.2,79.3,87.9,79.3
		c48.7,0,88.3-39.6,88.3-88.3C439.6,459,404.8,421.4,360.3,416.8z M351.3,574.8c-38.7,0-70.2-31.5-70.2-70.2
		c0-38.2,31-70.2,70.2-70.2c38.7,0,70.2,31.5,70.2,70.2C421.4,543.4,390,574.8,351.3,574.8z"/>
	<path class="st1" d="M386,508c0,5-4.1,9.1-9.1,9.1h-17.2v17.2c0,5-4.1,9.1-9.1,9.1s-9.1-4.1-9.1-9.1v-17.2h-17.2
		c-5,0-9.1-4.1-9.1-9.1s4.1-9.1,9.1-9.1h17.2v-17.2c0-5,4.1-9.1,9.1-9.1s9.1,4.1,9.1,9.1v17.2h17.2C381.9,498.9,386,502.9,386,508z"
		/>
</g>
</svg>
