<?xml version="1.0" encoding="utf-8"?>
<!-- Generator: Adobe Illustrator 19.0.0, SVG Export Plug-In . SVG Version: 6.00 Build 0)  -->
<svg version="1.1" id="Layer_1" xmlns="http://www.w3.org/2000/svg" xmlns:xlink="http://www.w3.org/1999/xlink" x="0px" y="0px"
	 viewBox="4 -4 32 32" style="enable-background:new 4 -4 32 32;" xml:space="preserve">
<style type="text/css">
	.st0{fill:#FFFFFF;fill-opacity:0;}
	.st1{fill:#333333;}
	.st2{fill:#D1A570;}
</style>
<title>amenities-icons-sprite</title>
<rect id="Rectangle_55_" x="4" y="-4" class="st0" width="32" height="32"/>
<g>
	<ellipse class="st1" cx="17.2" cy="-1.3" rx="0.7" ry="0.7"/>
	<circle class="st2" cx="20" cy="-1.3" r="0.7"/>
	<ellipse class="st1" cx="22.8" cy="-1.3" rx="0.7" ry="0.7"/>
	<g>
		<g>
			<path id="Combined-Shape_5_" class="st1" d="M8.6,0.2V26h22.8V0.2H8.6z M30.6,25.1H9.4V0.9h21.2V25.1z"/>
			<path id="Path_121_" class="st2" d="M14.9,6.8c-0.4-0.4-0.6-0.9-0.6-1.5s0.2-1.1,0.6-1.5s0.9-0.6,1.5-0.6s1.1,0.2,1.5,0.6
				s0.6,0.9,0.6,1.5s-0.2,1.1-0.6,1.5S17,7.4,16.4,7.4S15.3,7.2,14.9,6.8z"/>
		</g>
	</g>
	<g>
		<path class="st2" d="M23.8,12.1c0.1,0,0.3,0,0.4-0.1l0.8-0.8v2.6c0,0.3,0.2,0.5,0.5,0.5s0.5-0.2,0.5-0.5v-2.6l0.8,0.8
			c0.2,0.2,0.5,0.2,0.7,0c0.2-0.2,0.2-0.5,0-0.7l-1.6-1.6c-0.2-0.2-0.5-0.2-0.7,0l-1.7,1.7c-0.2,0.2-0.2,0.5,0,0.7
			C23.5,12.1,23.7,12.1,23.8,12.1z"/>
		<path class="st1" d="M27.5,18.7c-0.2-0.2-0.5-0.2-0.7,0l-0.8,0.9V17c0-0.3-0.2-0.5-0.5-0.5s-0.5,0.2-0.5,0.5v2.6l-0.8-0.8
			c-0.2-0.2-0.5-0.2-0.7,0c-0.2,0.2-0.2,0.5,0,0.7l1.7,1.7c0.1,0.1,0.2,0.1,0.4,0.1c0,0,0,0,0,0c0.1,0,0.3-0.1,0.4-0.2l1.6-1.7
			C27.7,19.2,27.7,18.9,27.5,18.7z"/>
	</g>
	<path class="st2" d="M20.3,8.9C20,8.4,19.5,8.2,19,8.2h-2.5h0H14c-0.6,0-1.1,0.2-1.4,0.7c-0.3,0.4-0.4,0.9-0.4,1.5v5.8
		c0.1,0.3,0.4,0.6,0.7,0.6c0.4,0,0.7-0.3,0.7-0.7v-5.3c0-0.1,0-0.1,0.1-0.2c0.1,0,0.2,0,0.2,0s0.1,0,0.2,0s0.1,0.1,0.1,0.2v11.8
		c0,0,0,0,0,0c0,0.3,0.1,0.5,0.3,0.6c0.2,0.2,0.4,0.3,0.6,0.3c0.3,0,0.5-0.1,0.6-0.3c0.2-0.2,0.3-0.4,0.3-0.6c0,0,0,0,0,0h0v-7v-0.1
		c0,0,0-0.2,0.1-0.3c0.1-0.1,0.2-0.1,0.3-0.1c0,0,0,0,0,0c0.1,0,0.2,0.1,0.3,0.1c0.1,0.1,0.1,0.2,0.1,0.3c0,0,0,0,0,0.1c0,0,0,0,0,0
		v7h0c0,0,0,0,0,0c0,0.3,0.1,0.5,0.3,0.6c0.2,0.2,0.4,0.3,0.6,0.3c0.3,0,0.5-0.1,0.6-0.3c0.2-0.2,0.3-0.4,0.3-0.6c0,0,0,0,0,0h0
		V10.8c0-0.1,0-0.2,0.1-0.2c0.1,0,0.2,0,0.2,0s0.1,0,0.2,0c0.1,0.1,0.1,0.1,0.1,0.2v5.3c0,0.4,0.3,0.7,0.7,0.7
		c0.3,0,0.6-0.2,0.7-0.6v-5.8C20.8,9.8,20.7,9.3,20.3,8.9z"/>
</g>
</svg>
