<?xml version="1.0" encoding="utf-8"?>
<!-- Generator: Adobe Illustrator 19.0.0, SVG Export Plug-In . SVG Version: 6.00 Build 0)  -->
<svg version="1.1" id="Layer_1" xmlns="http://www.w3.org/2000/svg" xmlns:xlink="http://www.w3.org/1999/xlink" x="0px" y="0px"
	 viewBox="-289 381 32 32" style="enable-background:new -289 381 32 32;" xml:space="preserve">
<style type="text/css">
	.st0{fill:#FFFFFF;fill-opacity:0;}
	.st1{fill:none;}
	.st2{fill:#D1A671;}
	.st3{fill:#333333;}
</style>
<rect id="Rectangle_55_" x="-289" y="381" class="st0" width="32" height="32"/>
<g id="XMLID_27_">
	<path id="XMLID_72_" class="st1" d="M-262.3,392.4h-4.1c-0.4,0-0.7-0.3-0.7-0.7v-0.9c0-1.2-1-2.2-2.2-2.2h-7.5
		c-1.2,0-2.2,1-2.2,2.2v0.8c0,0.4-0.3,0.7-0.7,0.7h-0.7c-0.4,0-0.7-0.3-0.7-0.7v-1.5h-2v1.1c0,0.1,0.1,0.3,0.1,0.4
		c0,0.4-0.3,0.7-0.7,0.7c-1,0-1.9,0.8-1.9,1.9v9.3c0,1,0.8,1.9,1.9,1.9h21.5c1,0,1.9-0.8,1.9-1.9v-9.3
		C-260.4,393.2-261.2,392.4-262.3,392.4z M-272.8,403.5c-2.8,0-5-2.3-5-5s2.3-5,5-5c2.7,0,5,2.3,5,5S-270.1,403.5-272.8,403.5z
		 M-263,395.8c-0.7,0-1.3-0.6-1.3-1.3s0.6-1.3,1.3-1.3s1.3,0.6,1.3,1.3C-261.6,395.2-262.2,395.8-263,395.8z"/>
	<circle id="XMLID_74_" class="st1" cx="-263" cy="394.5" r="0.6"/>
	<path id="XMLID_77_" class="st2" d="M-272.8,395.3c-1.5,0-2.7,1.2-2.7,2.7s1.2,2.7,2.7,2.7s2.7-1.2,2.7-2.7
		S-271.3,395.3-272.8,395.3z M-273.2,396.9c-0.3,0-0.5,0.2-0.5,0.5h-0.8c0-0.7,0.6-1.3,1.3-1.3V396.9z"/>
	<path id="XMLID_80_" class="st3" d="M-272.8,392.4c-3.2,0-5.6,2.6-5.6,5.6s2.6,5.6,5.6,5.6c3,0,5.6-2.6,5.6-5.6
		S-269.8,392.4-272.8,392.4z M-272.8,403c-2.7,0-5-2.3-5-5s2.3-5,5-5c2.7,0,4.9,2.3,4.9,5S-270.1,403-272.8,403z"/>
	<path id="XMLID_83_" class="st3" d="M-262.3,391.6h-4.1v-0.8c0-1.6-1.3-3-3-3h-7.5c-1.6,0-3,1.3-3,3v0.8h-0.5v-1.5
		c0-0.4-0.3-0.7-0.7-0.7h-2.1c-0.4,0-0.7,0.3-0.7,0.7v1.6l0,0c-1.2,0-2.4,1.2-2.4,2.6v9.3c0,1.4,1.2,2.6,2.6,2.6h21.5
		c1.4,0,2.6-1.2,2.6-2.6v-9.3C-259.7,392.8-260.8,391.6-262.3,391.6z M-260.4,403.5c0,1-0.8,1.9-1.9,1.9h-21.4c-1,0-1.9-0.8-1.9-1.9
		v-9.3c0-1,0.8-1.8,1.9-1.9c0.8-0.1,0.6-0.6,0.6-1.2v-1h2v1.5c0,0.4,0.3,0.7,0.7,0.7h0.7c0.4,0,0.7-0.3,0.7-0.7v-0.8
		c0-1.2,1-2.2,2.2-2.2h7.5c1.2,0,2.2,1,2.2,2.2v0.8c0,0.4,0.3,0.7,0.7,0.7h4.1c1,0,1.9,0.8,1.9,1.9
		C-260.4,394.2-260.4,403.5-260.4,403.5z"/>
	<path id="XMLID_86_" class="st2" d="M-263,393.2c-0.7,0-1.3,0.6-1.3,1.3s0.6,1.3,1.3,1.3s1.3-0.6,1.3-1.3
		C-261.6,393.8-262.2,393.2-263,393.2z M-263,395.1c-0.3,0-0.6-0.3-0.6-0.6s0.3-0.6,0.6-0.6s0.6,0.3,0.6,0.6S-262.6,395.1-263,395.1
		z"/>
</g>
</svg>
