<?xml version="1.0" encoding="utf-8"?>
<!-- Generator: Adobe Illustrator 19.0.0, SVG Export Plug-In . SVG Version: 6.00 Build 0)  -->
<svg version="1.1" id="Capa_1" xmlns="http://www.w3.org/2000/svg" xmlns:xlink="http://www.w3.org/1999/xlink" x="0px" y="0px"
	 viewBox="-61 152 489 489" style="enable-background:new -61 152 489 489;" xml:space="preserve">
<style type="text/css">
	.st0{fill:#222122;}
	.st1{fill:#D1A570;}
</style>
<g>
	<g>
		<g>
			<path class="st0" d="M331,447.2v140.4c0,11-8.9,19.9-19.9,19.9H-34.3c-11,0-19.9-8.9-19.9-19.9V242c0-11,8.9-19.9,19.9-19.9
				h247.6c9.8,0,15.9,6.3,18.3,12.3c2.5,5.9,2.6,14.7-4.3,21.6c-3.8,3.8-8.7,5.8-14,5.8H-14.6v305.9h305.9V447.2
				c0-5.3,2.1-10.3,5.8-14c6.9-6.9,15.7-6.8,21.6-4.3C324.8,431.3,331,437.4,331,447.2z"/>
		</g>
		<g>
			<g>
				<path class="st1" d="M421.3,214c0,7.5-3,14.6-8.4,20L173.4,473.6c-5.4,5.4-12.5,8.3-20.1,8.3s-14.7-3-20.1-8.3l-78.4-78.5
					c-5.4-5.3-8.3-12.4-8.3-20c0-7.7,3.1-15,8.6-20.4c5.2-5.1,12.1-7.8,19.6-7.8c7.9,0,15.3,3.1,20.8,8.6l57.8,57.8l219.4-219.5
					c5.4-5.4,12.5-8.3,20.1-8.3s14.7,3,20.1,8.3C418.3,199.3,421.3,206.4,421.3,214z"/>
			</g>
		</g>
	</g>
</g>
</svg>
