<?xml version="1.0" encoding="utf-8"?>
<!-- Generator: Adobe Illustrator 19.0.0, SVG Export Plug-In . SVG Version: 6.00 Build 0)  -->
<svg version="1.1" id="Layer_1" xmlns="http://www.w3.org/2000/svg" xmlns:xlink="http://www.w3.org/1999/xlink" x="0px" y="0px"
	 viewBox="0 0 100 100" style="enable-background:new 0 0 100 100;" xml:space="preserve">
<style type="text/css">
	.st0{fill:#222122;}
	.st1{fill:#C6C6C6;}
</style>
<g>
	<path class="st0" d="M95.6,66.8c-0.9-0.9-1.8-1.8-2.8-2.6c-0.7-0.6-1.5-0.6-2,0c-0.5,0.6-0.4,1.3,0.2,2c0.6,0.6,1.3,1.3,2,1.9
		c1,1,1,1.1,0.3,2.3c-0.4,0.5-0.7,0.6-1.2,0.1c-0.6-0.6-1.2-1.1-1.8-1.7c-0.9-0.7-2-0.3-2.2,0.9c-0.1,0.3,0,0.7,0,1v17.2h-6.4V75.4
		c0-2.2-1.1-3.3-3.3-3.3h-5.2c-2.4,0-3.4,1.1-3.4,3.5V87c0,0.4,0,0.7-0.1,1h-7.3V70.3c0-0.7-0.1-1.3-0.9-1.6
		c-0.7-0.3-1.2,0.1-1.7,0.5c-0.5,0.5-1,0.9-1.5,1.4c-0.2,0.2-0.5,0.3-0.7,0.3c-0.8-0.2-1.2-1.8-0.6-2.3c1.5-1.4,3-2.9,4.6-4.3
		c0.6-0.5,0.8-1.1,0.8-1.8v-5.6c0-2.1,0-2.1,2.1-1.9c0.5,0,0.7,0.2,0.7,0.7c0,0.7-0.1,1.5,0,2.2c0.1,0.5,0.4,1.1,0.7,1.2
		c0.4,0.2,1,0,1.5-0.2c0.3-0.1,0.5-0.4,0.8-0.7c0.5,0.3,1,0.7,1.5,1c0.9,0.4,1.5,0.9,2,1.8c1.1,2,3.7,2.6,5.6,1.5
		c2-1.1,2.7-3.6,1.7-5.6s-3.5-2.9-5.5-1.8c-0.8,0.5-1.5,1.2-2.3,1.9c-0.2-0.1-0.5-0.3-1-0.6c1.4-1.3,2.8-2.6,4.1-3.9
		c0.9-0.9,1-0.9,1.9,0c2.7,2.5,5.4,5,8,7.5c0.3,0.3,0.5,0.5,0.8,0.7c0.6,0.3,1.2,0.3,1.5-0.3c0.3-0.4,0.2-1,0.2-1.6
		c0-0.3-0.4-0.5-0.7-0.7c-2.1-2-4.2-3.9-6.3-5.9c-0.3-0.3-0.5-0.7-0.5-1.1c0-5.1-1.3-9.8-3.4-14.4c-0.2-0.4-0.3-1-0.2-1.5
		c0.9-4.9,0.3-9.5-1.9-13.9c-4.9-9.9-17.3-14.4-27.3-10C35.7,15.9,30.7,27.9,35.2,39c0.3,0.6,0.2,1-0.3,1.5
		C29.6,45.7,24.3,51,19,56.3c-1,1-1.2,1.8-0.5,2.4c0.7,0.7,1.4,0.5,2.4-0.5c5-5.1,10.1-10.2,15.2-15.3c0.2-0.2,0.5-0.4,0.8-0.7
		c1.7,2.7,3.9,4.9,6.5,6.5c-0.2,0.2-0.3,0.4-0.4,0.5c-4.6,4.6-9.2,9.2-13.9,13.8c-0.3,0.3-0.8,0.5-1.2,0.6c-1.2,0.3-2.5,0.4-3.8,0.7
		c-1.5,0.3-2.1,1-2.4,2.5c-0.2,1.1-0.4,2.1-0.5,3.2c-0.1,0.5-0.3,0.7-0.8,0.8c-1.1,0.1-2.2,0.4-3.2,0.5c-1.5,0.3-2.3,1-2.5,2.5
		l-0.6,3.6c-0.2,1.3-1,2-2.4,2H6.2v-5.6c0-0.7,0.2-1.2,0.7-1.7c2.5-2.4,4.9-4.8,7.3-7.3c0.8-0.8,0.8-1.6,0.2-2.1
		c-0.6-0.6-1.3-0.5-2.1,0.2c-2.6,2.6-5.3,5.2-7.8,7.9C4,71.4,3.8,72.2,3.6,73c-0.2,0.6-0.1,1.3-0.2,2v5.5c0.7,1.4,1.8,1.9,3.3,1.8
		c1.8-0.1,3.7-0.1,5.5-0.1c2.1-0.1,4.1-1.7,4.4-3.8c0.2-1.2,0.4-2.3,0.6-3.5c0.1-0.6,0.3-0.8,0.9-0.9c1.1-0.2,2.2-0.3,3.2-0.5
		c1.5-0.3,2.2-1,2.4-2.4c0.1-0.8,0.3-1.6,0.4-2.3c0.3-1.6,0.3-1.6,1.8-1.8c0.7-0.1,1.4-0.3,2.2-0.4c1.3-0.1,2.3-0.7,3.2-1.7
		c4.6-4.6,9.2-9.2,13.8-13.9c0.5-0.5,0.9-0.6,1.6-0.3c3.6,1.5,7.4,2,11.2,1.4c1.5-0.3,3.1-0.7,4.6-1c0.2,0.3,0.4,0.7,0.6,1.1
		c-2.8,0.5-3.5,1.3-3.5,4.2v5.3c0,0.6-0.1,1.1-0.6,1.5c-1.3,1.2-2.6,2.4-3.8,3.6c-0.4,0.4-0.8,0.8-1,1.2c-0.8,1.8-0.3,3,1.2,4.8
		c0.9,1.1,2.3,1.2,3.8,0.6c0.1,0,0.2,0,0.4-0.1v14.4c0,2,0.9,2.9,2.9,2.9H88c1.9,0,2.8-0.9,2.8-2.8V73c0.8,0.1,1.5,0.4,2.2,0.3
		c1.8-0.1,2.5-1.4,3.2-2.7C96.9,69.3,96.7,67.8,95.6,66.8z M76.7,58.5c-0.1,1.3-1,1.9-2.2,1.3C75.3,59.3,76,58.9,76.7,58.5z
		 M74.3,39.7c1,1.2,2.5,7.5,2.2,9.4c-1.6-0.5-2.9,0-4.1,1.2c-1.4,1.4-2.8,2.6-4.3,4.1c-1.1-1.6-2.1-3.1-3.2-4.7
		C69.2,47.2,72.2,44,74.3,39.7z M61.5,38.8c-0.2-2,0.1-4.1,0.1-6.1c0-0.6,0.3-0.8,1-0.9c3.6-0.6,6.3-4,6.2-7.5
		c-0.1-3.9-3-7.1-6.7-7.4c-4-0.3-7.3,2-8.2,5.9c-0.9,3.5,1.2,7.2,4.8,8.7c0.1,0.1,0.3,0.1,0.4,0.2c-1.2,5.8,0.1,11.2,2.2,16.6
		c-8.1,3.3-19.4-0.1-23.6-10.2c-3.9-9.4,0.3-20.2,9.9-24.4C57,9.5,68.1,14,72.1,23.6c4,9.6-0.8,19.7-8.3,23.5
		C62.6,44.4,61.7,41.7,61.5,38.8z M60.6,28.5c-0.3,0.5-0.6,0.6-1.1,0.4c-2.4-1-3.7-3.7-2.8-6.2c0.9-2.5,3.6-3.8,6.1-3s3.9,3.5,3.2,6
		c-0.2,0.7-0.7,0.6-1.4,0.6C63,26.3,61.6,27.1,60.6,28.5z M79,87.9h-6.6V75.7c0-0.8,0.2-1.1,1-1.1c1.6,0.1,3.2,0,4.8,0
		c0.4,0,0.8,0.1,0.8,0.6V87.9z"/>
	<path class="st1" d="M66,25.7c-0.2,0.7-0.7,0.6-1.4,0.6c-1.6,0-3,0.8-4,2.2c-0.3,0.5-0.6,0.6-1.1,0.4c-2.4-1-3.7-3.7-2.8-6.2
		c0.9-2.5,3.6-3.8,6.1-3S66.7,23.2,66,25.7z"/>
	<path class="st1" d="M79,87.9h-6.6V87c0-3.8,0-7.5,0-11.3c0-0.8,0.2-1.1,1-1.1c1.6,0.1,3.2,0,4.8,0c0.4,0,0.8,0.1,0.8,0.6
		C79,79.4,79,83.6,79,87.9z"/>
</g>
</svg>
