<?xml version="1.0" encoding="utf-8"?>
<!-- Generator: Adobe Illustrator 19.0.0, SVG Export Plug-In . SVG Version: 6.00 Build 0)  -->
<svg version="1.1" id="Layer_1" xmlns="http://www.w3.org/2000/svg" xmlns:xlink="http://www.w3.org/1999/xlink" x="0px" y="0px"
	 viewBox="0 0 32 32" style="enable-background:new 0 0 32 32;" xml:space="preserve">
<style type="text/css">
	.st0{clip-path:url(#Rectangle_1_);}
	.st1{fill:#333333;}
	.st2{fill:#D1A671;}
</style>
<g>
	<defs>
		<rect id="Rectangle_55_" width="32" height="32"/>
	</defs>
	<clipPath id="Rectangle_1_">
		<use xlink:href="#Rectangle_55_"  style="overflow:visible;"/>
	</clipPath>
	<g class="st0">
		<g>
			<path class="st1" d="M16,13.5c-1.2,0-2.3-0.6-2.6-1.5c-0.1-0.4-0.3-0.8-0.5-1.2c-0.1-0.1-0.1-0.3-0.2-0.4
				c-0.1-0.3-0.2-0.5-0.3-0.8c-0.2-0.5-0.5-1.1-0.7-1.6c-0.1-0.4-0.1-0.8,0-1.2C12,6.3,12,5.8,12.1,5.2c0-0.2,0-0.4,0-0.6
				c0.1-1.4,1.3-2.5,3-2.8c0.1,0,0.2,0,0.4-0.1c0.1,0,0.1,0,0.2,0l0,0h0.7l0.1,0c0.1,0,0.3,0.1,0.4,0.1c0.3,0.1,0.7,0.2,1.1,0.3
				c1.3,0.6,2,1.7,2,3.2c0,0.4,0.1,0.8,0.2,1.2c0.3,0.8,0.2,1.6-0.2,2.4c-0.2,0.3-0.4,0.7-0.6,1c-0.2,0.3-0.3,0.5-0.4,0.8
				c-0.2,0.5-0.4,0.8-0.5,1.2C18.4,12.5,17.9,13.4,16,13.5C16,13.5,16,13.5,16,13.5z M15.7,2.4c0,0-0.1,0-0.1,0
				c-0.1,0-0.3,0.1-0.4,0.1c-1.3,0.2-2.2,1.1-2.3,2.1c0,0.2,0,0.4,0,0.5c0,0.6-0.1,1.3-0.4,2c-0.1,0.1-0.1,0.4,0,0.6
				c0.2,0.5,0.4,1.1,0.7,1.6c0.1,0.3,0.2,0.5,0.3,0.8c0.1,0.1,0.1,0.3,0.2,0.4c0.2,0.4,0.4,0.8,0.5,1.3c0.2,0.6,1,1,1.9,0.9
				c1,0,1.6-0.4,1.8-1c0.1-0.4,0.3-0.8,0.5-1.4c0.1-0.3,0.3-0.6,0.5-0.8c0.2-0.3,0.4-0.6,0.5-0.9c0.3-0.6,0.3-1.2,0.1-1.8
				c-0.2-0.5-0.3-1-0.3-1.5c0-1.2-0.5-2-1.6-2.5c-0.3-0.1-0.6-0.2-0.9-0.3c-0.1,0-0.3-0.1-0.4-0.1H15.7z"/>
		</g>
		<g>
			<path class="st1" d="M16,22.5C16,22.5,16,22.5,16,22.5c-3.3,0-6.4-1.7-8.2-4.5c-0.6-0.9-0.7-1.6-0.5-2.3c0.2-0.7,0.8-1.2,1.7-1.6
				c0.8-0.3,1.6-0.7,2.4-1l1.4-0.6l0.2,0.2c1.1,1,1.7,2.1,1.9,3.4h2.2c0.2-1.3,0.9-2.5,1.9-3.4l0.2-0.2l1.4,0.6
				c0.8,0.3,1.6,0.7,2.4,1c1,0.4,1.5,0.9,1.8,1.6c0.2,0.7,0,1.4-0.5,2.3C22.4,20.9,19.3,22.5,16,22.5z M12.7,13.5l-0.9,0.4
				c-0.8,0.3-1.6,0.7-2.4,1C8.6,15.2,8.1,15.6,8,16c-0.1,0.4,0,1,0.4,1.6c1.7,2.6,4.5,4.1,7.5,4.1c0,0,0,0,0,0c3,0,5.9-1.5,7.6-4.1
				C24,17,24.1,16.5,24,16c-0.1-0.4-0.6-0.8-1.3-1.1c-0.8-0.3-1.6-0.7-2.4-1l-0.9-0.4c-0.9,0.9-1.4,1.9-1.5,3.1l0,0.3h-3.6l0-0.3
				C14.1,15.5,13.6,14.4,12.7,13.5z"/>
		</g>
		<g>
			<path class="st2" d="M11.5,27.8c-0.6-0.3-1.1-0.5-1.5-0.7c-0.4-0.2-0.6-0.2-1,0.1c-0.4,0.3-0.8,0.6-1.3,1
				c0.1-0.6,0.1-1.2,0.2-1.6c0.1-0.4,0-0.7-0.4-0.9c-0.4-0.3-0.8-0.6-1.4-0.9c0.7-0.1,1.2-0.3,1.7-0.3c0.4,0,0.5-0.2,0.6-0.5
				c0.1-0.5,0.3-1,0.5-1.7c0.3,0.6,0.6,1,0.8,1.5c0.2,0.3,0.4,0.5,0.7,0.4c0.5,0,1.1,0,1.7,0c-0.4,0.4-0.8,0.8-1.2,1.2
				c-0.3,0.3-0.3,0.5-0.2,0.8C11.1,26.7,11.3,27.2,11.5,27.8z"/>
		</g>
		<g>
			<path class="st2" d="M5,23.6c-0.4-0.5-0.7-0.9-1-1.3c-0.2-0.4-0.5-0.4-0.9-0.3c-0.5,0.1-1,0.2-1.6,0.3c0.4-0.5,0.6-1,0.9-1.4
				c0.3-0.3,0.3-0.6,0.1-1C2.2,19.5,2,19,1.7,18.4c0.7,0.2,1.2,0.3,1.7,0.5c0.3,0.1,0.6,0,0.8-0.2c0.4-0.4,0.7-0.8,1.2-1.3
				c0,0.7,0.1,1.2,0,1.7c0,0.4,0.1,0.6,0.5,0.7c0.5,0.2,0.9,0.5,1.5,0.8c-0.6,0.2-1.1,0.4-1.6,0.5c-0.4,0.1-0.5,0.3-0.5,0.7
				C5.2,22.4,5.1,22.9,5,23.6z"/>
		</g>
		<g>
			<path class="st2" d="M27.3,23.5c-0.2-0.6-0.4-1.1-0.5-1.6c-0.1-0.4-0.3-0.6-0.7-0.6c-0.5-0.1-1-0.2-1.6-0.3
				c0.5-0.4,0.9-0.7,1.4-0.9c0.4-0.2,0.5-0.5,0.4-0.9c-0.1-0.5-0.1-1-0.2-1.6c0.5,0.4,1,0.7,1.4,1.1c0.3,0.2,0.5,0.2,0.8,0.1
				c0.5-0.2,1-0.5,1.6-0.8c-0.2,0.6-0.4,1.1-0.6,1.6c-0.1,0.3-0.1,0.6,0.2,0.8c0.4,0.4,0.7,0.8,1.2,1.3c-0.6,0-1.2,0-1.7-0.1
				c-0.4,0-0.6,0.1-0.7,0.4C27.9,22.5,27.6,22.9,27.3,23.5z"/>
		</g>
		<g>
			<path class="st2" d="M16,30.3c-0.3-0.6-0.5-1.1-0.7-1.6c-0.1-0.3-0.3-0.5-0.6-0.5c-0.5,0-1.1-0.1-1.7-0.2c0.5-0.4,0.8-0.7,1.2-1
				c0.4-0.3,0.4-0.6,0.3-1c-0.1-0.5-0.2-0.9-0.4-1.5c0.6,0.4,1,0.6,1.5,0.9c0.3,0.2,0.5,0.2,0.8,0c0.4-0.3,0.9-0.6,1.5-0.9
				c-0.2,0.7-0.3,1.2-0.4,1.8c0,0.2,0.1,0.5,0.2,0.6c0.4,0.4,0.8,0.7,1.4,1.2c-0.7,0.1-1.2,0.1-1.7,0.2c-0.4,0-0.5,0.1-0.6,0.5
				C16.5,29.2,16.3,29.7,16,30.3z"/>
		</g>
		<g>
			<path class="st2" d="M24.3,28.1c-0.5-0.4-1-0.7-1.4-1.1c-0.3-0.2-0.5-0.3-0.8-0.1c-0.5,0.3-1,0.4-1.6,0.7c0.2-0.6,0.4-1,0.6-1.5
				c0.2-0.5,0.1-0.7-0.2-1c-0.3-0.3-0.7-0.7-1.1-1.2c0.7,0,1.2,0,1.8,0.1c0.3,0,0.5-0.1,0.7-0.4c0.2-0.5,0.5-1,0.9-1.5
				c0.2,0.7,0.3,1.2,0.5,1.8c0.1,0.2,0.3,0.4,0.5,0.5c0.5,0.2,1.1,0.3,1.8,0.4c-0.6,0.4-1,0.7-1.5,1c-0.3,0.2-0.4,0.4-0.3,0.7
				C24.2,26.9,24.2,27.4,24.3,28.1z"/>
		</g>
	</g>
</g>
</svg>
