<?xml version="1.0" encoding="utf-8"?>
<!-- Generator: Adobe Illustrator 19.0.0, SVG Export Plug-In . SVG Version: 6.00 Build 0)  -->
<svg version="1.1" id="Capa_1" xmlns="http://www.w3.org/2000/svg" xmlns:xlink="http://www.w3.org/1999/xlink" x="0px" y="0px"
	 viewBox="-49 141 512 512" style="enable-background:new -49 141 512 512;" xml:space="preserve">
<style type="text/css">
	.st0{fill:#D1A570;}
</style>
<g id="XMLID_1750_">
	<g id="XMLID_3517_">
		<g id="XMLID_3518_">
			<path id="XMLID_4263_" class="st0" d="M357.2,206.9H224.6c-10.6,0-20.8,4.2-28.3,11.7L-27.2,442.1c-15.6,15.6-15.6,40.9,0,56.6
				l132.6,132.6c15.6,15.6,40.9,15.6,56.6,0l223.6-223.6c7.5-7.5,11.7-17.7,11.7-28.3V246.9C397.2,224.8,379.3,206.9,357.2,206.9
				L357.2,206.9z"/>
		</g>
	</g>
	<g id="XMLID_1492_">
		<path id="XMLID_1703_" d="M462.9,211.8c0-39.1-31.8-70.8-70.8-70.8c-33.9,0-62.4,24-69.2,55.9h-98.2c-13.4,0-25.9,5.2-35.4,14.6
			L-34.3,435c-9.4,9.4-14.6,22-14.6,35.4c0,13.4,5.2,25.9,14.6,35.4L98.3,638.4c9.4,9.4,22,14.6,35.4,14.6s25.9-5.2,35.4-14.6
			l77.3-77.3c3.9-3.9,3.9-10.2,0-14.1c-3.9-3.9-10.2-3.9-14.1,0l-77.3,77.3c-11.7,11.7-30.7,11.7-42.4,0L-20.1,491.6
			c-5.7-5.7-8.8-13.2-8.8-21.2c0-8,3.1-15.5,8.8-21.2l223.6-223.5c5.7-5.7,13.2-8.8,21.2-8.8h96.8c1.2,17,8.4,32.8,20.5,45
			c3.9,3.9,10.2,3.9,14.1,0c3.9-3.9,3.9-10.2,0-14.1c-8.4-8.4-13.5-19.2-14.6-30.9h15.7c16.5,0,30,13.5,30,30v132.6
			c0,8-3.1,15.5-8.8,21.2l-82.6,82.6c-3.9,3.9-3.9,10.2,0,14.1c3.9,3.9,10.2,3.9,14.1,0l82.6-82.6c9.4-9.4,14.6-22,14.6-35.4V281
			C439.5,274.1,462.9,245.6,462.9,211.8L462.9,211.8z M407.2,260.4v-13.5c0-27.6-22.4-50-50-50h-13.7c6.4-20.8,25.8-35.9,48.6-35.9
			c28,0,50.8,22.8,50.8,50.8C442.9,234.6,428.1,253.9,407.2,260.4z"/>
		<path id="XMLID_1704_" d="M89,469.8c3.9-3.9,3.9-10.2,0-14.1c-3.9-3.9-10.2-3.9-14.1,0l-24.1,24.1c-3.9,3.9-3.9,10.2,0,14.1
			l59.4,59.4c2,2,4.5,2.9,7.1,2.9s5.1-1,7.1-2.9c3.9-3.9,3.9-10.2,0-14.1L101.1,516l15.1-15.1c3.9-3.9,3.9-10.2,0-14.1
			c-3.9-3.9-10.2-3.9-14.1,0L87,501.8l-15-15L89,469.8z"/>
		<path id="XMLID_1745_" d="M207,466.5c5.2,0,9.6-4.1,10-9.4c0.4-5.5-3.8-10.3-9.3-10.6l-33.1-2.1c2.8-4.8,4.4-10.2,4.5-15.8
			c0.3-8.8-2.9-17.1-9-23.1c-12.4-12.4-33-12-45.9,0.9l-15.8,15.8c0,0,0,0,0,0s0,0,0,0c-3.9,3.9-3.9,10.2,0,14.1l59.4,59.4
			c2,2,4.5,2.9,7.1,2.9s5.1-1,7.1-2.9c3.9-3.9,3.9-10.2,0-14.1l-17.8-17.7l42.2,2.7C206.6,466.5,206.8,466.5,207,466.5L207,466.5z
			 M138.4,420.4c5-5,13.1-5.4,17.6-0.9c2.1,2.1,3.3,5.1,3.1,8.4c-0.1,3.4-1.6,6.8-4,9.2c-2,2-5.5,5.5-8.6,8.7
			c-3.1-3.1-6.5-6.4-8.4-8.4c-1.6-1.6-5.1-5.1-8.4-8.3L138.4,420.4z"/>
		<path id="XMLID_1746_" d="M304.4,373.2l25-25c3.9-3.9,3.9-10.2,0-14.1c-3.9-3.9-10.2-3.9-14.1,0l-18,18l-15.6-15.6l16.1-16.1
			c3.9-3.9,3.9-10.2,0-14.1c-3.9-3.9-10.2-3.9-14.1,0l-16.1,16.1l-15.6-15.6l18-18c3.9-3.9,3.9-10.2,0-14.1
			c-3.9-3.9-10.2-3.9-14.1,0l-25,25c-3.9,3.9-3.9,10.2,0,14.1l29.7,29.7l0,0c0,0,0,0,0,0l29.7,29.7c1.9,1.9,4.4,2.9,7.1,2.9
			S302.5,375.1,304.4,373.2L304.4,373.2z"/>
		<path id="XMLID_1747_" d="M239.3,434.1c2.7,0,5.2-1.1,7.1-2.9l25-25c3.9-3.9,3.9-10.2,0-14.1c-3.9-3.9-10.2-3.9-14.1,0l-18,18
			l-15.6-15.6l16.1-16.1c3.9-3.9,3.9-10.2,0-14.1c-3.9-3.9-10.2-3.9-14.1,0l-16.1,16.1l-15.6-15.6l18-18c3.9-3.9,3.9-10.2,0-14.1
			c-3.9-3.9-10.2-3.9-14.1,0l-25,25c-3.9,3.9-3.9,10.2,0,14.1l59.4,59.4C234.1,433.1,236.7,434.1,239.3,434.1z"/>
		<path id="XMLID_1760_" d="M271.1,512.1c-2.6,0-5.2,1.1-7.1,2.9c-1.9,1.9-2.9,4.4-2.9,7.1c0,2.6,1.1,5.2,2.9,7.1
			c1.9,1.9,4.4,2.9,7.1,2.9s5.2-1.1,7.1-2.9c1.9-1.9,2.9-4.4,2.9-7.1c0-2.6-1.1-5.2-2.9-7.1S273.8,512.1,271.1,512.1z"/>
	</g>
</g>
</svg>
