<?xml version="1.0" encoding="utf-8"?>
<!-- Generator: Adobe Illustrator 19.0.0, SVG Export Plug-In . SVG Version: 6.00 Build 0)  -->
<svg version="1.1" id="Layer_1" xmlns="http://www.w3.org/2000/svg" xmlns:xlink="http://www.w3.org/1999/xlink" x="0px" y="0px"
	 viewBox="0 0 100 100" style="enable-background:new 0 0 100 100;" xml:space="preserve">
<style type="text/css">
	.st0{fill:#C6C6C6;}
</style>
<g>
	<path d="M97.4,17.9C97.3,9.5,90.6,2.7,82.2,2.7c-21.4,0-42.9,0-64.3,0c-5.4,0-9.7,2.4-12.7,6.9c-3,4.4-3,9.4-2.1,14.3
		c1.3,7.4,7.6,12.4,15.1,12.4c17.3,0,34.7,0,52,0h1.3c0,2.5,0,4.8,0,7.1c0,0.8,0.1,1.6,1,2c0.9,0.3,1.4-0.1,2-0.7
		c2.6-2.6,5.2-5.2,7.8-7.7c0.3-0.3,0.8-0.6,1.3-0.6c6.6-0.9,11.1-4.5,13.2-10.8C97.6,23,97.4,20.4,97.4,17.9z M94.1,22.9
		c-0.8,5.7-5.8,10.1-11.5,10.3c-0.8,0-1.4,0.3-2,0.9c-1.8,1.8-3.5,3.6-5.3,5.3c-0.2,0.2-0.5,0.4-0.8,0.8v-4.5c0-2.1-0.4-2.4-2.5-2.4
		c-18,0-35.9,0-53.9,0c-5.9,0-10.9-3.9-12-9.6c-0.8-4.1-0.9-8.4,1.6-12.2c2.3-3.6,5.7-5.7,10-5.7c21.6-0.1,43.1,0,64.7,0
		c6.4,0,11.8,5.4,11.9,11.9C94.3,19.4,94.4,21.2,94.1,22.9z"/>
	<path d="M50.1,39.3c-16,0-29,13-29,29c0,16,13,29,29,29c16,0,29-13,29-29S66.1,39.3,50.1,39.3z M50,94.3c-14.3,0-25.9-11.7-25.9-26
		c0-14.3,11.7-25.9,26-25.9c14.3,0,25.9,11.7,25.9,26C76,82.6,64.3,94.3,50,94.3z"/>
	<path d="M61.6,17.8c0.3-0.3,0.5-0.8,0.7-1c0-1.1-0.6-1.7-1.5-1.8c-1.8-0.3-3.6-0.5-5.5-0.8c-0.6-0.1-1-0.3-1.3-0.9
		c-0.8-1.7-1.6-3.3-2.4-5c-0.3-0.7-0.8-1.1-1.5-1.1c-0.8,0-1.2,0.5-1.5,1.1c-0.8,1.7-1.6,3.3-2.4,5c-0.2,0.5-0.5,0.8-1.1,0.9
		c-1.8,0.2-3.7,0.5-5.5,0.8c-0.8,0.1-1.4,0.4-1.6,1.1c-0.2,0.7,0.1,1.3,0.6,1.8c1.3,1.3,2.6,2.5,3.9,3.8c0.5,0.4,0.6,0.9,0.5,1.5
		c-0.3,1.8-0.6,3.6-0.9,5.3c-0.1,0.7-0.1,1.3,0.5,1.8c0.7,0.5,1.3,0.3,2,0c1.7-0.9,3.3-1.8,5-2.6c0.3-0.2,0.9-0.2,1.2,0
		c1.7,0.8,3.3,1.7,5,2.6c0.6,0.3,1.3,0.5,1.9,0c0.6-0.4,0.7-1.1,0.6-1.8c-0.3-1.8-0.6-3.6-0.9-5.4c-0.1-0.6,0-1,0.4-1.4
		C59,20.4,60.3,19.1,61.6,17.8z M54.7,20.3c-0.6,0.6-0.9,1.3-0.7,2.1c0.3,1.2,0.4,2.4,0.7,3.8c-1.3-0.7-2.4-1.2-3.5-1.8
		c-0.7-0.4-1.4-0.4-2.1,0c-1.1,0.6-2.2,1.2-3.5,1.8c0.2-1.4,0.4-2.6,0.6-3.8c0.2-0.9,0-1.5-0.7-2.1c-0.9-0.8-1.7-1.8-2.7-2.7
		c1.2-0.2,2.4-0.4,3.5-0.5c1-0.1,1.7-0.5,2.1-1.5c0.5-1.1,1-2.1,1.6-3.3c0.6,1.2,1.2,2.3,1.7,3.3c0.4,1,1.1,1.4,2.1,1.5
		c1.2,0.1,2.3,0.3,3.5,0.5C56.4,18.5,55.5,19.4,54.7,20.3z"/>
	<path d="M89,17.8c0.5-0.5,0.9-1,0.6-1.8c-0.2-0.8-0.8-1-1.6-1.1c-1.8-0.2-3.6-0.5-5.4-0.8c-0.6-0.1-1-0.3-1.2-0.9
		c-0.8-1.6-1.6-3.2-2.4-4.9c-0.3-0.7-0.7-1.2-1.5-1.2c-0.8,0-1.2,0.5-1.6,1.2c-0.8,1.6-1.6,3.3-2.5,4.9c-0.2,0.3-0.7,0.7-1,0.8
		c-1.8,0.3-3.6,0.6-5.5,0.8c-0.8,0.1-1.4,0.4-1.6,1.1c-0.3,0.7,0.1,1.3,0.6,1.8c1.3,1.3,2.6,2.5,3.9,3.8c0.5,0.5,0.6,0.9,0.5,1.6
		c-0.4,1.9-0.7,3.8-1,5.6c-0.1,1.4,1.1,2.1,2.3,1.6c1.7-0.8,3.3-1.7,5-2.6c0.6-0.3,1.1-0.4,1.7,0c1.6,0.9,3.2,1.7,4.8,2.6
		c0.6,0.3,1.4,0.5,1.8-0.1c0.3-0.4,0.6-1.1,0.5-1.7c-0.2-1.8-0.6-3.6-0.9-5.4c-0.1-0.6,0-1.1,0.5-1.5C86.5,20.3,87.7,19.1,89,17.8z
		 M82.2,20.1c-0.7,0.7-1,1.4-0.8,2.4c0.3,1.2,0.4,2.4,0.6,3.7c-1.2-0.6-2.4-1.2-3.5-1.8c-0.7-0.4-1.4-0.4-2.2,0
		c-1.1,0.6-2.2,1.2-3.5,1.8c0.2-1.4,0.4-2.6,0.7-3.8c0.2-0.8,0-1.5-0.6-2.1c-0.9-0.9-1.8-1.8-2.7-2.8c1.2-0.2,2.4-0.4,3.5-0.5
		c1-0.1,1.6-0.5,2-1.4c0.5-1.1,1-2.1,1.7-3.4c0.6,1.3,1.2,2.3,1.7,3.5c0.4,0.9,1,1.3,1.9,1.4c1.2,0.1,2.4,0.3,3.6,0.5
		C83.9,18.4,83.1,19.3,82.2,20.1z"/>
	<path d="M34.1,17.7c0.3-0.3,0.5-0.8,0.7-1c0-1.1-0.6-1.6-1.5-1.8c-1.8-0.3-3.6-0.5-5.5-0.8c-0.6-0.1-1-0.3-1.3-0.9
		c-0.8-1.6-1.6-3.2-2.4-4.9c-0.3-0.6-0.7-1.1-1.5-1.1c-0.8,0-1.3,0.5-1.6,1.2c-0.8,1.7-1.6,3.3-2.5,4.9c-0.2,0.3-0.6,0.7-1,0.8
		c-1.8,0.3-3.6,0.6-5.5,0.8c-0.8,0.1-1.4,0.3-1.6,1.1c-0.3,0.8,0.1,1.3,0.6,1.9c1.3,1.2,2.5,2.5,3.8,3.6c0.6,0.5,0.7,1,0.6,1.8
		c-0.4,1.7-0.6,3.5-0.9,5.3c-0.1,0.7-0.1,1.3,0.6,1.8c0.6,0.5,1.2,0.3,1.9,0c1.7-0.9,3.3-1.8,5-2.6c0.4-0.2,0.9-0.2,1.3,0
		c1.7,0.8,3.4,1.8,5.1,2.6c0.5,0.2,1.3,0.2,1.7-0.1c0.4-0.3,0.6-1.1,0.6-1.6c-0.2-1.8-0.5-3.6-0.9-5.4c-0.1-0.7,0-1.2,0.5-1.7
		C31.6,20.3,32.9,19,34.1,17.7z M27.4,20.1c-0.8,0.7-1.1,1.5-0.8,2.5c0.3,1.1,0.4,2.3,0.6,3.6c-1.1-0.6-2.2-1.1-3.2-1.7
		c-0.9-0.5-1.7-0.6-2.7,0c-1,0.6-2.1,1.1-3.3,1.7c0.2-1.4,0.4-2.6,0.6-3.8c0.2-0.8,0-1.5-0.6-2.1c-0.9-0.9-1.8-1.8-2.7-2.8
		c1.1-0.2,2.2-0.4,3.3-0.5c1.2-0.1,1.9-0.6,2.4-1.7c0.4-1,1-2,1.6-3.2c0.6,1.2,1.1,2.2,1.6,3.2c0.5,1.1,1.2,1.6,2.4,1.7
		c1.1,0.1,2.1,0.3,3.3,0.5C29,18.4,28.2,19.3,27.4,20.1z"/>
	<path d="M63.3,74.4H50.1c-4.5,0-9,0-13.4,0c-1.3,0-1.9,0.6-1.9,1.9c0,0.3,0,0.6,0.1,0.9c0.5,3.3,2.3,5.9,5,7.8
		c5.7,4,14.2,4.1,19.9,0.2c3.1-2.1,5.1-4.9,5.4-8.6C65.5,75,64.9,74.4,63.3,74.4z M60.4,80.8c-2.3,2.7-5.3,3.9-8.8,4.2
		c-4,0.4-7.7-0.5-10.9-3.1c-1.3-1.1-2.3-2.5-2.7-4.4h24C61.8,78.8,61.2,79.8,60.4,80.8z"/>
	<path d="M39.4,56.1c4,0,7.5,3.3,7.6,7.3c0,1.1-0.5,1.8-1.4,1.8c-0.9,0.1-1.6-0.6-1.7-1.8c-0.3-3-3-5-5.9-4.1
		c-1.9,0.6-3,2.2-3.3,4.2c-0.1,0.5-0.5,1.2-0.9,1.5c-0.3,0.2-1.1,0.1-1.4-0.2c-0.4-0.3-0.6-1-0.6-1.5C31.8,59.4,35.3,56.1,39.4,56.1
		z"/>
	<path d="M60.8,56.1c4.1,0,7.5,3.3,7.6,7.3c0,1-0.4,1.6-1.2,1.8c-1,0.2-1.8-0.5-1.9-1.7c-0.2-2.5-2.1-4.3-4.5-4.4
		c-2.5-0.1-4.5,1.8-4.7,4.3c-0.1,0.9-0.4,1.6-1.3,1.8c-1,0.2-1.8-0.6-1.8-1.7C53.1,59.5,56.6,56.1,60.8,56.1z"/>
	<path class="st0" d="M57.3,17.5c-1,1-1.8,1.9-2.7,2.7c-0.6,0.6-0.9,1.3-0.7,2.1c0.3,1.2,0.4,2.4,0.7,3.8c-1.3-0.7-2.4-1.2-3.5-1.8
		c-0.7-0.4-1.4-0.4-2.1,0c-1.1,0.6-2.2,1.2-3.5,1.8c0.2-1.4,0.4-2.6,0.6-3.8c0.2-0.9,0-1.5-0.7-2.1c-0.9-0.8-1.7-1.8-2.7-2.7
		c1.2-0.2,2.4-0.4,3.5-0.5c1-0.1,1.7-0.5,2.1-1.5c0.5-1.1,1-2.1,1.6-3.3c0.6,1.2,1.2,2.3,1.7,3.3c0.4,1,1.1,1.4,2.1,1.5
		C55,17.1,56.1,17.3,57.3,17.5z"/>
	<path class="st0" d="M82.2,20.1c-0.7,0.7-1,1.4-0.8,2.4c0.3,1.2,0.4,2.4,0.6,3.7c-1.2-0.6-2.4-1.2-3.5-1.8c-0.7-0.4-1.4-0.4-2.2,0
		c-1.1,0.6-2.2,1.2-3.5,1.8c0.2-1.4,0.4-2.6,0.7-3.8c0.2-0.8,0-1.5-0.6-2.1c-0.9-0.9-1.8-1.8-2.7-2.8c1.2-0.2,2.4-0.4,3.5-0.5
		c1-0.1,1.6-0.5,2-1.4c0.5-1.1,1-2.1,1.7-3.4c0.6,1.3,1.2,2.3,1.7,3.5c0.4,0.9,1,1.3,1.9,1.4c1.2,0.1,2.4,0.3,3.6,0.5
		C83.9,18.4,83.1,19.3,82.2,20.1z"/>
	<path class="st0" d="M29.8,17.5c-0.9,0.9-1.6,1.8-2.5,2.6c-0.8,0.7-1.1,1.5-0.8,2.5c0.3,1.1,0.4,2.3,0.6,3.6
		c-1.1-0.6-2.2-1.1-3.2-1.7c-0.9-0.5-1.7-0.6-2.7,0c-1,0.6-2.1,1.1-3.3,1.7c0.2-1.4,0.4-2.6,0.6-3.8c0.2-0.8,0-1.5-0.6-2.1
		c-0.9-0.9-1.8-1.8-2.7-2.8c1.1-0.2,2.2-0.4,3.3-0.5c1.2-0.1,1.9-0.6,2.4-1.7c0.4-1,1-2,1.6-3.2c0.6,1.2,1.1,2.2,1.6,3.2
		c0.5,1.1,1.2,1.6,2.4,1.7C27.6,17.1,28.7,17.3,29.8,17.5z"/>
	<path class="st0" d="M62.1,77.5c-0.3,1.3-0.8,2.3-1.7,3.3c-2.3,2.7-5.3,3.9-8.8,4.2c-4,0.4-7.7-0.5-10.9-3.1
		c-1.3-1.1-2.3-2.5-2.7-4.4H62.1z"/>
</g>
</svg>
