<?xml version="1.0" encoding="utf-8"?>
<!-- Generator: Adobe Illustrator 19.0.0, SVG Export Plug-In . SVG Version: 6.00 Build 0)  -->
<svg version="1.1" id="Layer_1" xmlns="http://www.w3.org/2000/svg" xmlns:xlink="http://www.w3.org/1999/xlink" x="0px" y="0px"
	 viewBox="-49 141 512 512" style="enable-background:new -49 141 512 512;" xml:space="preserve">
<style type="text/css">
	.st0{fill:#ECEFF1;}
	.st1{fill:#D1A570;}
</style>
<path class="st0" d="M451.7,322.3H399c-23.5,0-42.7,19.2-42.7,42.7c0,11.7-4.7,22.4-12.6,30.1c-7.7,7.9-18.3,12.6-30.1,12.6h-192
	C98.2,407.7,79,388.5,79,365c0-11.7-4.7-22.4-12.6-30.1c-7.7-7.9-18.3-12.6-30.1-12.6h-73.8c1.5-10,5.5-19.4,11.5-27.5l30.3-47.1
	h405.3l32,47.8C447,303.6,450.4,312.7,451.7,322.3z"/>
<path class="st0" d="M367,141H47c-29.4,0-53.3,23.9-53.3,53.3V429c0,5.9,4.8,10.7,10.7,10.7h405.3c5.9,0,10.7-4.8,10.7-10.7V194.3
	C420.3,164.9,396.4,141,367,141z"/>
<path class="st1" d="M462.2,320.8c-0.8-5.2-5.2-9.1-10.5-9.1H399c-29.4,0-53.3,23.9-53.3,53.3c0,8.6-3.3,16.6-9.6,22.7
	c-5.9,6-13.8,9.3-22.4,9.3H100.3c-17.6,0-32-14.4-32-32c0-14.4-5.6-27.8-15.6-37.5c-9.9-10.2-23.3-15.8-37.7-15.8h-52.5
	c-5.1,0-9.5,3.6-10.5,8.7c-0.8,4.1-1,8.2-1,12.2v139.1c0,29.4,23.9,53.3,53.3,53.3h405.3c29.4,0,53.3-23.9,53.3-53.3V331.1
	C463,327.5,462.8,324.3,462.2,320.8z"/>
<path d="M409.7,525H4.3c-29.4,0-53.3-23.9-53.3-53.3V332.6c0-16,5-31.3,14.5-44.2l29.9-46.6c3.2-4.9,9.8-6.4,14.8-3.2
	c4.9,3.2,6.4,9.8,3.2,14.7L-17,300.6c-7.1,9.7-10.7,20.6-10.7,32.1v139.1c0,17.6,14.4,32,32,32h405.3c17.6,0,32-14.4,32-32V331
	c0-10.6-3.1-20.8-9-29.6l-31.9-47.9c-3.3-4.9-1.9-11.5,3-14.8c4.9-3.3,11.5-2,14.8,3l31.9,47.9c8.2,12.3,12.5,26.6,12.5,41.4v140.6
	C463,501.1,439.1,525,409.7,525z"/>
<path d="M303,418.3H111c-29.4,0-53.3-23.9-53.3-53.3c0-17.6-14.4-32-32-32h-53.3c-5.9,0-10.7-4.8-10.7-10.7
	c0-5.9,4.8-10.7,10.7-10.7h53.3c29.4,0,53.3,23.9,53.3,53.3c0,17.6,14.4,32,32,32h192c17.6,0,32-14.4,32-32
	c0-29.4,23.9-53.3,53.3-53.3h53.3c5.9,0,10.7,4.8,10.7,10.7c0,5.9-4.8,10.7-10.7,10.7h-53.3c-17.6,0-32,14.4-32,32
	C356.3,394.4,332.4,418.3,303,418.3z"/>
<path d="M409.7,333c-5.9,0-10.7-4.8-10.7-10.7v-128c0-17.6-14.4-32-32-32H47c-17.6,0-32,14.4-32,32v128c0,5.9-4.8,10.7-10.7,10.7
	c-5.9,0-10.7-4.8-10.7-10.7v-128c0-29.4,23.9-53.3,53.3-53.3h320c29.4,0,53.3,23.9,53.3,53.3v128C420.3,328.2,415.6,333,409.7,333z"
	/>
<path d="M207,290.4c-13.3,0-26.6-3.6-38.4-10.7L41.5,203.5c-5.1-3-6.7-9.6-3.7-14.6c3.1-5.1,9.7-6.7,14.6-3.6l127.1,76.2
	c17,10.2,38,10.2,54.9,0l127.1-76.2c5-3,11.6-1.4,14.6,3.6c3.1,5.1,1.4,11.6-3.7,14.6l-127.1,76.2
	C233.6,286.8,220.3,290.4,207,290.4z"/>
<path d="M100.3,343.7c-3.6,0-7.1-1.8-9.2-5.2c-3.1-5.1-1.4-11.6,3.7-14.6l53.3-32c5-3,11.6-1.4,14.6,3.6s1.4,11.6-3.7,14.6l-53.3,32
	C104.1,343.2,102.2,343.7,100.3,343.7z"/>
<path d="M313.7,343.7c-1.9,0-3.8-0.5-5.5-1.5l-53.3-32c-5.1-3-6.7-9.6-3.7-14.6c3.1-5.1,9.6-6.7,14.6-3.6l53.3,32
	c5.1,3,6.7,9.6,3.7,14.6C320.8,341.8,317.3,343.7,313.7,343.7z"/>
</svg>
