<?xml version="1.0" encoding="utf-8"?>
<!-- Generator: Adobe Illustrator 19.0.0, SVG Export Plug-In . SVG Version: 6.00 Build 0)  -->
<svg version="1.1" id="Layer_1" xmlns="http://www.w3.org/2000/svg" xmlns:xlink="http://www.w3.org/1999/xlink" x="0px" y="0px"
	 viewBox="0 0 32 32" style="enable-background:new 0 0 32 32;" xml:space="preserve">
<style type="text/css">
	.st0{fill:#333333;}
	.st1{fill:#E7E7E7;}
</style>
<path class="st0" d="M25,14.1l-9.6-9c-0.2-0.2-0.6-0.2-0.8,0L4.4,14.6c-0.2,0.2-0.3,0.6,0,0.8c0.1,0.1,0.3,0.2,0.4,0.2
	s0.3,0,0.4-0.2l1.1-1v9.3c0,0.3,0.3,0.6,0.6,0.6h12c-0.3-0.3-0.6-0.7-0.8-1.1c0,0,0-0.1-0.1-0.1H7.5v-9.8l7.5-7l7.2,6.8v0.1V17
	c0.4,0,0.8,0.1,1.2,0.3v-3.1l0.8,0.7c0.2,0.2,0.6,0.2,0.9,0C25.3,14.7,25.3,14.3,25,14.1z"/>
<g>
	<path class="st1" d="M20.4,14l0,3.2c-1.7,0-1.5,0.8-2.4,2l-0.2-2.5c0-0.3-0.1-0.4-0.4-0.4L12,15.8c-0.3,0-0.6,0.3-0.6,0.6v6.7H7.5
		v-7.3l7.2-6.9L20.4,14z"/>
	<path class="st0" d="M17.5,15.8H12c-0.3,0-0.6,0.3-0.6,0.6v7.3c0,0.3,0.3,0.6,0.6,0.6h5.5h0.1c0.2,0,0.4-0.2,0.4-0.4
		c0,0,0-0.1,0-0.2v-7.3C18.1,16.1,17.8,15.8,17.5,15.8z M16.9,23.1h-4.3V17h4.3V23.1z"/>
</g>
<path class="st0" d="M22.4,16.3c-3,0-5.4,2.4-5.4,5.4c0,3,2.4,5.4,5.4,5.4c3,0,5.4-2.4,5.4-5.4C27.8,18.7,25.4,16.3,22.4,16.3z
	 M22.4,26c-2.4,0-4.3-1.9-4.3-4.3s1.9-4.3,4.3-4.3c2.4,0,4.3,1.9,4.3,4.3S24.8,26,22.4,26z"/>
<path class="st0" d="M22.2,21.2c-0.4,0-0.7,0-1.1,0c-0.2,0-0.3,0-0.3-0.3s0.2-0.2,0.4-0.2c0.3,0,0.6,0,1,0c-0.3-0.5-0.6-0.5-1-0.5
	c-0.2,0-0.4,0.1-0.4-0.2c0-0.4,0.2-0.3,0.4-0.3c0.7,0,1.4,0,2.1,0c0.2,0,0.5-0.1,0.5,0.3c0,0.3-0.3,0.2-0.4,0.2c-0.2,0-0.4,0-0.5,0
	c0.2,0.4,0.2,0.4,0.6,0.5c0.2,0,0.4-0.1,0.4,0.2c0,0.3-0.2,0.3-0.4,0.3c-0.2,0-0.4,0-0.5,0.3c-0.1,0.4-0.5,0.5-1,0.7
	c0.4,0.5,0.7,0.9,1.1,1.4c-0.5,0.2-0.9,0.1-1.2-0.4c-0.2-0.4-0.6-0.7-0.8-1s-0.2-0.5,0.3-0.5C21.5,21.7,21.9,21.7,22.2,21.2z"/>
</svg>
