<svg height="512" viewBox="0 0 60 60" width="512" xmlns="http://www.w3.org/2000/svg"><g id="Page-1" fill="none" fill-rule="evenodd"><g id="013---Old-Man-In-chair" fill-rule="nonzero"><path id="Shape" d="m46 25.5.0000001 8.5h-10.0000001v-7c0-2.209139 1.790861-4 4-4 1.3327553-.0814489 2.669697-.0647371 4 .05 1.1641656.2376343 2.0002425 1.2618285 2 2.45z" fill="#f44335"/><path id="Shape" d="m44 23.05c-1.2182391-.1106953-2.4431939-.1274114-3.664-.05.2225476-.0107229.4455678.0060708.664.05 1.1641656.2376343 2.0002425 1.2618285 2 2.45v8.5h3.0000001l-.0000001-8.5c.0002425-1.1881715-.8358344-2.2123657-2-2.45z" fill="#c81e1e"/><path id="Shape" d="m47 13v1.99c-.004879 1.8238426-1.2361016 3.4162239-3 3.88-.617.173-.838.13-4.01.13-1.6568542 0-3-1.3431458-3-3v-2h-.97c-.3862654.0009656-.7395991-.2173962-.9114934-.563307-.1718943-.3459107-.1325511-.7594064.1014934-1.066693 1.5-2 1.72-2.137 1.81-2.88.2411525-2.46679951 2.2530901-4.38461132 4.7286064-4.5073849s4.6673423 1.58655197 5.1513936 4.0173849h-2.9c-.8081302-.00064085-1.537236.48512179-1.8479 1.2311531-.3106641.7460313-.1418322 1.6057151.4279 2.1788469.3732724.3817834.886083.5948527 1.42.59z" fill="#ffe0b2"/><path id="Shape" d="m44 13v1.99c-.004879 1.8238426-1.2361016 3.4162239-3 3.88-.3310644.0933045-.6741122.1371121-1.018.13h.008c3.172 0 3.393.043 4.01-.13 1.7638984-.4637761 2.995121-2.0561574 3-3.88v-1.99z" fill="#dfc49c"/><path id="Shape" d="m49 11c-.0032948 1.1032019-.8967981 1.9967052-2 2h-3c-1.1045695 0-2-.8954305-2-2s.8954305-2 2-2h3c1.1032019.0032948 1.9967052.89679813 2 2z" fill="#f5f5f5"/><path id="Shape" d="m48.41 9.59c-.3704612-.3798589-.8794095-.59282307-1.41-.59l-3-.00002771c1.1045695.00002771 2 .89545821 2 2.00002771s-.8954305 2-2 2h3c.8063114-.0033854 1.5317303-.4906258 1.8398346-1.2357575s.138627-1.6024026-.4298346-2.1742425z" fill="#cfd8dc"/><path id="Shape" d="m44 18.87v4.18c-1.3304543-.111632-2.667171-.1283409-4-.05v-4c1.3340986.1020241 2.6753413.0584337 4-.13z" fill="#dfc49c"/><path id="Shape" d="m27 39h-3.075c-1.9159198.0012085-3.5619335 1.3607948-3.925 3.242l-1.86 9.628c-.1412022.5243661.1668094 1.0645025.69 1.21l2.87.83c.2586707.0732098.5359237.0391873.7692186-.0943929.2332949-.1335801.4029808-.3554663.4707814-.6156071l1.87-7.444c.1118468-.444534.5116114-.756103.97-.756h1.22z" fill="#3f51b5"/><path id="Shape" d="m22.15 53.94-.8 3.5c-.2029246.9134553-1.0142797 1.5625394-1.95 1.56h-3.28c-1.0712421.0188531-1.9829105-.7761564-2.11-1.84-.0492878-.5595845.1396289-1.1140174.520337-1.5270857.3807082-.4130683.9179234-.6464886 1.479663-.6429143h.3c.7869345.002202 1.5008672-.4606774 1.82-1.18l.4-.87z" fill="#283593"/><path id="Shape" d="m59 13.09-1.82 40c-.0481655 1.0692723-.929644 1.9110843-2 1.91h-26.18c-1.1032019-.0032948-1.9967052-.8967981-2-2v-15c0-2.209139 1.790861-4 4-4h19l2.77-21.26c.1337743-.9966244.9844377-1.7404205 1.99-1.74h2.24c.5464011-.0005535 1.0692387.2224693 1.4470094.6172398.3777708.3947704.5775789.9269123.5529906 1.4727602z" fill="#02a9f4"/><path id="Shape" d="m57 11c-.8749854-.0565448-1.7530797-.0435038-2.626.039.9762077.1848782 1.6686881 1.0583575 1.626 2.051l-1.82 40c-.0481655 1.0692723-.929644 1.9110843-2 1.910001l3-.000001c1.070356.0010843 1.9518345-.8407277 2-1.91l1.82-40c.0245883-.5458479-.1752198-1.0779898-.5529906-1.4727602-.3777707-.3947705-.9006083-.6177933-1.4470094-.6172398z" fill="#0377bc"/><path id="Shape" d="m29 55h8v2c0 1.1045695-.8954305 2-2 2h-4c-1.1045695 0-2-.8954305-2-2z" fill="#91562d"/><path id="Shape" d="m34 55v2c0 1.1045695-.8954305 2-2 2h3c1.1045695 0 2-.8954305 2-2v-2z" fill="#6d4122"/><path id="Shape" d="m47 55h8v2c0 1.1045695-.8954305 2-2 2h-4c-1.1045695 0-2-.8954305-2-2z" fill="#91562d"/><path id="Shape" d="m52 55v2c0 1.1045695-.8954305 2-2 2h3c1.1045695 0 2-.8954305 2-2v-2z" fill="#6d4122"/><path id="Shape" d="m15.888 11h-13.776c-.35704545-.0000311-.69231945-.1716586-.90112019-.4612854-.20880074-.2896269-.26568175-.66195631-.15287981-1.0007146l2.592-7.778c.15148919-.4539587.57643186-.76007853 1.055-.76h8.595c.4785681-.00007853.9035108.3060413 1.055.76l2.592 7.778c.1130849.33959634.0556316.7128752-.1543382 1.0027485-.2099698.2898734-.5467353.4608323-.9046618.4592515z" fill="#ffdc00"/><path id="Shape" d="m16.942 9.537-2.592-7.777c-.1509033-.45221777-.5732732-.75793316-1.05-.76l-3-.00000001c.4785681-.00007852.9035108.30604131 1.055.76000001l2.592 7.777c.1134852.33972126.0562269.7133177-.1537925 1.0034578s-.5470363.4612318-.9052075.4595422h3c.3572902.0000761.6928145-.1716846.9016644-.4615777.2088498-.2898932.2655365-.66253908.1523356-1.0014223z" fill="#fec108"/><path id="Shape" d="m16.12 59h-14.12c-.55228475 0-1-.4477153-1-1-.00803738-.6758371.31264903-1.313481.86-1.71 2.07725697-1.5005476 4.57748468-2.3024413 7.14-2.29 2.0073346-.0056669 3.9853153.4819603 5.76 1.42-.5288475.4153218-.8111882 1.0703524-.75 1.74.1270895 1.0638436 1.0387579 1.8588531 2.11 1.84z" fill="#7f8e94"/><path id="Shape" d="m52 40h-20c-.5522847 0-1-.4477153-1-1s.4477153-1 1-1h20c.5522847 0 1 .4477153 1 1s-.4477153 1-1 1z" fill="#3f51b5"/><path id="Shape" d="m1.281 55.475c-.81017319.5850122-1.28741481 1.5257109-1.281 2.525 0 1.1045695.8954305 2 2 2h14v-.011c.042 0 .082.011.124.011h3.276c1.4028474.0059329 2.6205322-.9658012 2.926-2.335l.685-3.017c.445842-.2664045.7690875-.6973984.9-1.2l1.869-7.448h.22v7c.0052514 1.2667854.8056491 2.3937454 2 2.816v1.184c0 1.6568542 1.3431458 3 3 3h4c1.6568542 0 3-1.3431458 3-3v-1h8v1c0 1.6568542 1.3431458 3 3 3h4c1.6568542 0 3-1.3431458 3-3v-1.128c1.2387825-.3480971 2.1152456-1.4506272 2.175-2.736l1.825-40.006c.0354771-.8179255-.2648612-1.6148192-.8313614-2.2058677-.5665001-.5910485-1.3499444-.92490134-2.1686386-.9241323h-2.244c-1.5056164.003414-2.7767906 1.1194835-2.975 2.612l-2.659 20.388h-2.122v-7.5c-.005115-1.3470861-.7828837-2.5716829-2-3.149v-2.779c1.8198454-.7976416 2.9966588-2.5950279 3-4.582v-1.174c1.2580548-.4411932 2.0716247-1.6624418 1.9941135-2.9933608-.0775112-1.33091907-1.0273484-2.44946878-2.3281135-2.7416392-.9089198-2.66581778-3.5497426-4.34059697-6.3486532-4.02624225s-5.0024259 2.53321722-5.2973468 5.33424225c-.0071623.14944427-.0544903.29419199-.137.419l-1.469 1.956c-.4611889.605299-.5420391 1.4187811-.2090141 2.1030153s1.023112 1.122492 1.7840141 1.1329847v1c.0067504 1.822704 1.2448725 3.4103458 3.011 3.861v2.239c-2.3264168.4784327-3.9970017 2.5248992-4 4.9v6h-4c-2.7600532.0033061-4.9966939 2.2399468-5 5h-2.075c-2.3949544.0033959-4.4522964 1.7019917-4.909 4.053l-1.841 9.557c-.1340917.5000899-.0669633 1.0328092.187 1.484l-.139.307c-.161832.3589591-.5192476.5895372-.913.589h-.3c-.4543587.0040353-.9020216.1099708-1.31.31-1.4771918-.6985437-3.0704624-1.118896-4.7-1.24v-41.06h3v4c0 .5522847.4477153 1 1 1s1-.4477153 1-1v-4h.888c.6782045-.0008103 1.3147205-.3274193 1.7108841-.8778886s.503726-1.25775726.2891159-1.9011114l-2.588-7.778c-.2866542-.86128895-1.0922616-1.4425347-2-1.443h-8.595c-.90773842.0004653-1.71334584.58171105-2 1.443l-2.596 7.778c-.21461013.64335414-.10704767 1.3506421.28911592 1.9011114s1.03267954.8770783 1.71088408.8778886h5.891v41.05c-2.42114083.1699457-4.74739041 1.0095283-6.719 2.425zm.74-45.521c-.02160155-.02864666-.02724598-.06627621-.015-.1l2.594-7.778c.01529632-.04507018.05740698-.07555027.105-.076h1.907l-1.561 4.684c-.17452197.52467051.1093295 1.09147801.634 1.26599999.52467051.17452197 1.09147801-.10932949 1.266-.63399999l1.77-5.316h.558l1.772 5.316c.174522.52467049.7413295.80852195 1.266.63399997s.808522-.74132946.634-1.26599997l-1.563-4.684h1.912c.0479613.00002423.0905839.03058382.106.076l2.592 7.778c.013463.03359191.0077263.0718365-.015.1-.0194729.0304818-.0538885.048072-.09.046h-13.781c-.03620031.0012214-.0705182-.0161261-.091-.046zm.432 47.146c1.90415298-1.3770937 4.19710052-2.1125741 6.547-2.1 1.45573-.0012733 2.8977046.2816866 4.245.833-.1907762.4448947-.2710609.9293476-.234 1.412.0256482.2587386.0865453.5127568.181.755h-11.19208873c-.00443922-.3558591.16457086-.6916407.45308873-.9zm33.547-.1c0 .5522847-.4477153 1-1 1h-4c-.5522847 0-1-.4477153-1-1v-1h6zm18 0c0 .5522847-.4477153 1-1 1h-4c-.5522847 0-1-.4477153-1-1v-1h6zm-11-35h-2v-2h2zm4-10h-3c-.5522847 0-1-.4477153-1-1s.4477153-1 1-1h3c.5522847 0 1 .4477153 1 1s-.4477153 1-1 1zm-9.011 4v-2c0-.5522847-.4477153-1-1-1l-.98-.029 1.473-1.963c.3032251-.4146476.4859517-.9050332.528-1.417.0957865-.9169117.5043511-1.77288443 1.157-2.424.7470667-.75026459 1.7632302-1.17048529 2.822-1.167 1.4292994.00291822 2.7496194.76434844 3.468 2h-1.457c-1.6568542 0-3 1.34314575-3 3 0 1.6568542 1.3431458 3 3 3h2v.99c-.0022047 1.6618534-1.349146 3.0083473-3.011 3.01h-3c-1.1045695 0-2-.8954305-2-2zm-.989 11c0-1.6568542 1.3431458-3 3-3h3.5c.8284271 0 1.5.6715729 1.5 1.5v7.5h-3v-5c0-.5522847-.4477153-1-1-1s-1 .4477153-1 1v5h-3zm-9 11c0-1.6568542 1.3431458-3 3-3h22c.5522847 0 1-.4477153 1-1s-.4477153-1-1-1h-1.861l2.626-20.129c.06478-.4979758.4888284-.8706763.991-.871h2.244c.2726564-.0002406.5335885.1108619.7223804.3075831s.2890713.4620009.2776196.7344169l-1.822 40c-.0240827.5346361-.464822.9555421-1 .955h-26.178c-.5522847 0-1-.4477153-1-1zm-7.021 4.432c.2722504-1.4119339 1.5080578-2.4321253 2.946-2.432h2.075v4h-.22c-.9170679-.0000909-1.716694.623535-1.94 1.513l-1.862 7.437-2.856-.89zm-4.969 13.558h.3c1.1776817-.0014881 2.246171-.6901048 2.734-1.762l.018-.04 1.882.544-.565 2.49c-.1039446.4565523-.5107681.7798503-.979.778h-3.276c-.5535681.0221732-1.0363286-.3729689-1.124-.92-.026755-.2968575.0803064-.5901762.292-.8.1916675-.1876576.4497684-.2919045.718-.29z" fill="#000"/></g></g></svg>