<?xml version="1.0" encoding="utf-8"?>
<!-- Generator: Adobe Illustrator 24.0.0, SVG Export Plug-In . SVG Version: 6.00 Build 0)  -->
<svg version="1.1" id="Layer_1" xmlns="http://www.w3.org/2000/svg" xmlns:xlink="http://www.w3.org/1999/xlink" x="0px" y="0px"
	 viewBox="0 0 72 72" style="enable-background:new 0 0 72 72;" xml:space="preserve">
<style type="text/css">
	.st0{fill:#3BB54A;}
</style>
<path class="st0" d="M65.5,4.6c-0.1,0-0.1-0.1-0.1-0.1c-0.4,0-0.8,0-1.1,0c-0.4,0.1-0.8,0.2-1.2,0.3c-1.6,0.5-3.1,1.3-4.4,2.2
	c-3.6,2.4-6.9,5.2-10,8.2c-7.2,6.7-13.8,13.9-20.3,21.3c-1.1,1.3-2.3,2.6-3.4,4C24,40,23,39.5,22.1,39c-3.3-1.6-6.5-3.2-10-4.3
	c-1.4-0.4-2.9-0.8-4.5-0.7c-2,0.1-3.1,1-3.7,2.9c0,0,0,0.1-0.1,0.1c0,0.3,0,0.6,0,1c0.4,0.5,0.6,1,1.1,1.3
	c6,5.4,10.9,11.7,15.1,18.6c1.6,2.6,3.2,5.3,4.7,8c0.4,0.6,0.8,1.2,1.5,1.5c0.2,0,0.5,0,0.7,0c0.8-0.3,1.2-0.9,1.5-1.6
	c3-7.6,6.5-15,10.7-22.1c5.5-9.5,11.9-18.2,19.6-26c2.4-2.5,5-4.9,7.5-7.4c0.8-0.8,1.6-1.7,1.9-2.9c0-0.2,0-0.5,0-0.7
	C67.7,5.4,66.8,4.9,65.5,4.6z"/>
</svg>
