<?xml version="1.0" encoding="utf-8"?>
<!-- Generator: Adobe Illustrator 19.0.0, SVG Export Plug-In . SVG Version: 6.00 Build 0)  -->
<svg version="1.1" id="Layer_1" xmlns="http://www.w3.org/2000/svg" xmlns:xlink="http://www.w3.org/1999/xlink" x="0px" y="0px"
	 viewBox="0 0 32 32" style="enable-background:new 0 0 32 32;" xml:space="preserve">
<style type="text/css">
	.st0{fill:#E7E7E7;}
	.st1{fill:#333333;}
</style>
<path class="st0" d="M17.7,17.5l-1.8-0.2h1.3C17.4,17.4,17.6,17.3,17.7,17.5z"/>
<path class="st0" d="M21.3,18c-0.1,0-0.3,0.7-0.5,0.9c-0.2-2.2-2.3-3.8-4.5-3.8c-2.4,0-4.3,1.9-4.3,4.3c0,1,0.5,3.8,0.3,3.6l-3.1-1
	v-5.3l7-6.4l5,4.6L21.3,18z"/>
<path class="st1" d="M27.7,16.7L16.8,6.5c-0.3-0.3-0.7-0.3-0.9,0L4.3,17.3c-0.3,0.3-0.3,0.7,0,1c0.1,0.1,0.3,0.2,0.5,0.2
	s0.3-0.1,0.5-0.2l1.2-1.1v5.1c0,0.4,0.3,0.7,0.7,0.7H13l-0.1-0.1c-0.4-0.4-0.7-0.8-0.8-1.1c0,0,0-0.1-0.1-0.1H7.8V16l8.5-7.9
	l8.2,7.7V20h1.4v-3.2l0.9,0.8c0.3,0.3,0.7,0.3,1,0C28,17.4,28,17,27.7,16.7z"/>
<g>
	<path class="st1" d="M21.6,18.6C21.2,16,19,14,16.3,14c-3,0-5.4,2.4-5.4,5.4c0,0.8,0.2,1.6,0.5,2.3c0.2,0.5,0.5,0.9,0.9,1.3
		c0.2,0.2,0.4,0.4,0.7,0.6c0.9,0.7,2.1,1.2,3.3,1.2c3,0,5.4-2.4,5.4-5.4C21.7,19.1,21.7,18.8,21.6,18.6z M16.3,23.7
		c-1.4,0-2.6-0.6-3.3-1.6c-0.6-0.7-0.9-1.7-0.9-2.7c0-2.4,1.9-4.3,4.3-4.3c2.2,0,4.1,1.7,4.3,3.9c0,0.1,0,0.2,0,0.3
		C20.5,21.7,18.6,23.7,16.3,23.7z"/>
	<path class="st1" d="M17.8,18.6c0,0.3-0.2,0.3-0.4,0.3s-0.4,0-0.5,0.3c-0.1,0.4-0.5,0.5-1,0.7c0.4,0.5,0.7,0.9,1.1,1.4
		c-0.5,0.2-0.9,0.1-1.2-0.4c-0.2-0.4-0.6-0.7-0.8-1c-0.2-0.3-0.2-0.5,0.3-0.5c0.1,0,0.5,0,0.8-0.5H15c-0.2,0-0.3,0-0.3-0.3
		s0.2-0.2,0.4-0.2h1c-0.3-0.5-0.6-0.5-1-0.5c-0.2,0-0.4,0.1-0.4-0.2c0-0.4,0.2-0.3,0.4-0.3h2.1c0.2,0,0.4-0.1,0.5,0.2
		c0,0,0,0.1,0,0.1c0,0.3-0.3,0.2-0.4,0.2h-0.5c0.2,0.4,0.2,0.4,0.6,0.5C17.6,18.4,17.8,18.3,17.8,18.6z"/>
</g>
</svg>
