<?xml version="1.0" encoding="utf-8"?>
<!-- Generator: Adobe Illustrator 19.0.0, SVG Export Plug-In . SVG Version: 6.00 Build 0)  -->
<svg version="1.1" id="Layer_1" xmlns="http://www.w3.org/2000/svg" xmlns:xlink="http://www.w3.org/1999/xlink" x="0px" y="0px"
	 viewBox="0 0 18 18" style="enable-background:new 0 0 18 18;" xml:space="preserve">
<style type="text/css">
	.st0{fill:#7F7F7F;}
</style>
<g>
	<g>
		<path id="XMLID_6_" class="st0" d="M6.1,14.9c0,0-0.1,0-0.1,0c-0.1-0.1-0.2-0.2-0.2-0.3v-1.8H2.9c-0.2,0-0.3-0.2-0.3-0.3V4.7
			c0-0.2,0.2-0.3,0.3-0.3h7.3c0.2,0,0.3,0.2,0.3,0.3c0,0.2-0.2,0.3-0.3,0.3H3.3v7h2.8c0.2,0,0.3,0.2,0.3,0.3v1.4l2.1-1.7
			c0.1,0,0.1-0.1,0.2-0.1h4.2V9c0-0.2,0.2-0.3,0.3-0.3s0.3,0.2,0.3,0.3v3.4c0,0.2-0.2,0.3-0.3,0.3H8.8l-2.5,2
			C6.2,14.8,6.2,14.9,6.1,14.9z"/>
	</g>
	<g>
		<path id="XMLID_5_" class="st0" d="M8.3,7H4.7C4.5,7,4.3,6.9,4.3,6.7c0-0.2,0.2-0.3,0.3-0.3h3.7c0.2,0,0.3,0.2,0.3,0.3
			C8.7,6.9,8.5,7,8.3,7z"/>
	</g>
	<g>
		<path id="XMLID_4_" class="st0" d="M8.3,8.9H4.7c-0.2,0-0.3-0.2-0.3-0.3s0.2-0.3,0.3-0.3h3.7c0.2,0,0.3,0.2,0.3,0.3
			S8.5,8.9,8.3,8.9z"/>
	</g>
	<g>
		<path id="XMLID_3_" class="st0" d="M11.6,10.8H4.7c-0.2,0-0.3-0.2-0.3-0.3s0.2-0.3,0.3-0.3h6.9c0.2,0,0.3,0.2,0.3,0.3
			S11.8,10.8,11.6,10.8z"/>
	</g>
	<g>
		<path class="st0" d="M11.3,8.8H10c-0.2,0-0.3-0.2-0.3-0.3V7.2c0-0.1,0-0.2,0.1-0.2l3.8-3.7c0.1-0.1,0.3-0.1,0.5,0l1.2,1.2
			c0.1,0.1,0.1,0.3,0,0.5l-3.7,3.8C11.5,8.8,11.4,8.8,11.3,8.8z M10.4,8.1h0.8l3.4-3.5l-0.7-0.7l-3.5,3.4V8.1z"/>
	</g>
</g>
</svg>
