<?xml version="1.0" encoding="utf-8"?>
<!-- Generator: Adobe Illustrator 19.0.0, SVG Export Plug-In . SVG Version: 6.00 Build 0)  -->
<svg version="1.1" id="Icon" xmlns="http://www.w3.org/2000/svg" xmlns:xlink="http://www.w3.org/1999/xlink" x="0px" y="0px"
	 viewBox="109 -109 250 250" style="enable-background:new 109 -109 250 250;" xml:space="preserve">
<style type="text/css">
	.st0{fill:#222122;stroke:#222122;stroke-width:2;stroke-miterlimit:10;}
	.st1{fill:#48B357;}
	.st2{fill:#FFFFFF;}
</style>
<g>
	<g>
		<g>
			<path class="st0" d="M295.6,56.7c-6.3-6.7-13.5-11.8-20.8-15.9c-0.7,0.7-1.3,1.5-1.9,2.3c6.9,3.7,13.6,8.5,19.6,14.6
				c-4.9,6.6-10.6,12.4-16.9,17.4c0.8,0.7,1.5,1.4,2.4,2c6.6-5.3,12.6-11.5,17.8-18.5l0.7-0.9L295.6,56.7z M265.8,81.9
				c-10.5,6.3-22.3,10.5-34.6,12.3l-5.1-38.8l4.1-8.3c4.5,2,9.1,5.3,11.3,10.4l0.3,0.4l0.1,0.4h0.1l0.1,0.3l0.9-0.3
				c0.8,0,1.7-0.3,4.1-9.3c1.1-4.2,2.1-10,1.8-15.4c4.1,1.1,8.6,2.6,13.4,4.5c0.5-0.8,1.1-1.6,1.7-2.4c-5.4-2.2-10.6-3.9-15.3-5.1
				c-0.7-3.9-2.2-7.5-5.4-9.7v-6c3.2-4.9,5.7-10.7,7.1-17.1c0.1,0.7,0.1,1.4,0.3,2.1c3.2-8,6.7-29.4,1.4-43.4
				c-8-21.5-30.5-27.6-47.6-19.1c-3.3,1.1-6.1,2.6-8.3,4.6c-21.6,13.4-15.8,50.3-10.3,58.4v-0.8c1.4,5.1,3.6,9.9,6.2,14v7.1
				c-2.9,2.6-4.3,5.5-5.1,9.9c-13.8,3.6-32.8,11.1-47,26.2l-0.8,0.9l0.7,0.9c18.4,25.1,46.9,39.6,77.9,39.6c17.9,0,35.2-5,50.2-14.1
				C267.2,83.4,266.5,82.7,265.8,81.9z M187-10.7c2.9-8.8,10.8-11.8,18.4-28.2c-0.3,7.5,5.3,17.9,15.4,20.1
				c-1.8-1.8-2.5-5.3-2.2-6.4c6.1,7.5,13.2,11.7,18.4,12.1c-1.1-0.9-2.2-3.2-3-4.6c3.4,3,9.6,8.8,14.3,9.6
				c-2.6,21.1-17.2,36.2-30.5,36.2C204.6,28,189.5,11.6,187-10.7z M204.6,94.4c-24.4-3.5-46.4-16.2-61.7-36.5
				c13.2-13.6,30.5-20.5,43.6-24.1c-0.4,9.5,3.7,24.2,5.8,24.7l1.2,0.3h0.1l0.5-1.1c2.2-5.1,6.8-8.3,11.3-10.3l4.1,8.3L204.6,94.4z
				 M193,53.5c-1.9-5.2-5-16.7-2.8-24.4c0.5-2.1,1.6-3.8,2.8-5.1c1.1,3.9,4.9,11.3,19.5,17.9C206.8,43.1,197.8,46.1,193,53.5z
				 M195.1,21.2v-3.1c6.4,8.3,14.9,13.4,22.6,13.4c7.8,0,16.1-4.5,22.5-12.2v2.2c-0.8,3.4-2.5,12.1-22.3,19.6
				C202.2,35.2,195.4,26.9,195.1,21.2z M242.8,23.9c1.1,1.4,2,3.1,2.6,5c0.1,0.4,0.1,0.9,0.3,1.3l0.3,1.7c0.9,7.6-1.7,16.8-3.2,21.5
				c-4.9-7.4-13.7-10.4-19.3-11.6C238,35.4,241.8,27.8,242.8,23.9z"/>
		</g>
	</g>
	<g>
		<path class="st1" d="M317.1,57.6c0,13.4-11.1,24.5-24.5,24.5c-5.5,0-10.5-1.8-14.6-5c-0.8-0.6-1.6-1.3-2.4-2
			c-4.6-4.5-7.5-10.7-7.5-17.5c0-5.4,1.8-10.4,4.8-14.5c0.6-0.8,1.2-1.6,1.9-2.3c4.5-4.8,10.8-7.7,17.8-7.7
			C306,33.1,317.1,44.2,317.1,57.6z"/>
		<path class="st2" d="M292.6,21.5c-11.5,0-21.9,5.6-28.6,14.2c-0.6,0.8-1.2,1.6-1.7,2.4c-3.7,5.7-5.9,12.4-5.9,19.6
			c0,9.2,3.5,17.7,9.4,24.2c0.7,0.8,1.4,1.5,2.2,2.2c6.5,6,15.1,9.8,24.6,9.8c19.8,0,36.2-16.4,36.2-36.2S312.4,21.5,292.6,21.5z
			 M292.6,82.1c-5.5,0-10.5-1.8-14.6-5c-0.8-0.6-1.6-1.3-2.4-2c-4.6-4.5-7.5-10.7-7.5-17.5c0-5.4,1.8-10.4,4.8-14.5
			c0.6-0.8,1.2-1.6,1.9-2.3c4.5-4.8,10.8-7.7,17.8-7.7c13.4,0,24.5,11.1,24.5,24.5C317.1,71,306,82.1,292.6,82.1z"/>
	</g>
</g>
</svg>
