<svg id="calculator" xmlns="http://www.w3.org/2000/svg" width="32.039" height="45.567" viewBox="0 0 32.039 45.567">
  <path id="Path_44" data-name="Path 44" d="M107.149,19.728a.89.89,0,0,0-.89.89v20.5a2.673,2.673,0,0,1-2.67,2.67H80.45a2.673,2.673,0,0,1-2.67-2.67V4.45a2.673,2.673,0,0,1,2.67-2.67h23.139a2.673,2.673,0,0,1,2.67,2.67V26.791a.89.89,0,0,0,1.78,0V4.45A4.455,4.455,0,0,0,103.589,0H80.45A4.455,4.455,0,0,0,76,4.45V41.117a4.455,4.455,0,0,0,4.45,4.45h23.139a4.455,4.455,0,0,0,4.45-4.45v-20.5A.89.89,0,0,0,107.149,19.728Z" transform="translate(-76)" fill="#d1a570"/>
  <path id="Path_45" data-name="Path 45" d="M140.919,41.78a1.782,1.782,0,0,0-1.78-1.78H117.78A1.782,1.782,0,0,0,116,41.78V54.307a1.782,1.782,0,0,0,1.78,1.78h21.359a1.782,1.782,0,0,0,1.78-1.78Zm-1.78,12.527H117.78V41.78h21.359V54.307Z" transform="translate(-112.44 -35.348)" fill="#d1a570"/>
  <path id="Path_46" data-name="Path 46" d="M219.56,291.667a3.56,3.56,0,1,0,3.56,3.56A3.564,3.564,0,0,0,219.56,291.667Zm0,5.34a1.78,1.78,0,1,1,1.78-1.78A1.782,1.782,0,0,1,219.56,297.007Z" transform="translate(-203.54 -267.894)" fill="#d1a570"/>
  <path id="Path_47" data-name="Path 47" d="M119.56,291.667a3.56,3.56,0,1,0,3.56,3.56A3.564,3.564,0,0,0,119.56,291.667Zm0,5.34a1.78,1.78,0,1,1,1.78-1.78A1.782,1.782,0,0,1,119.56,297.007Z" transform="translate(-112.44 -267.894)" fill="#d1a570"/>
  <path id="Path_51" data-name="Path 51" d="M219.56,391.667a3.56,3.56,0,1,0,3.56,3.56A3.564,3.564,0,0,0,219.56,391.667Zm0,5.34a1.78,1.78,0,1,1,1.78-1.78A1.782,1.782,0,0,1,219.56,397.007Z" transform="translate(-203.54 -357.902)" fill="#fff"/>
  <path id="Path_52" data-name="Path 52" d="M119.56,391.667a3.56,3.56,0,1,0,3.56,3.56A3.564,3.564,0,0,0,119.56,391.667Zm0,5.34a1.78,1.78,0,1,1,1.78-1.78A1.782,1.782,0,0,1,119.56,397.007Z" transform="translate(-112.44 -357.902)" fill="#fff"/>
  <path id="Path_53" data-name="Path 53" d="M319.56,290.667a3.564,3.564,0,0,0-3.56,3.56v9.992a3.56,3.56,0,1,0,7.12,0v-9.992A3.564,3.564,0,0,0,319.56,290.667Zm1.78,13.552a1.78,1.78,0,1,1-3.56,0v-9.992a1.78,1.78,0,1,1,3.56,0Z" transform="translate(-294.641 -266.894)" fill="#d1a570"/>
</svg>
