<svg xmlns="http://www.w3.org/2000/svg" width="80.601" height="80.601" viewBox="0 0 80.601 80.601">
  <g id="Group_353" data-name="Group 353" transform="translate(48.502 -336.995)" opacity="0.3">
    <path id="Path_4122" data-name="Path 4122" d="M-30.869,408.2H-46.3a.857.857,0,0,1-.857-.857V343.889a.856.856,0,0,1,.345-.688.853.853,0,0,1,.757-.133l15.436,4.6a.855.855,0,0,1,.611.821v58.85A.857.857,0,0,1-30.869,408.2Zm-14.576-1.713h13.72V349.13l-13.72-4.091Z" transform="translate(2.088 9.398)" fill="#222121"/>
    <path id="Path_4123" data-name="Path 4123" d="M-8.735,393.249H-24.168a.857.857,0,0,1-.859-.857v-38.9a.856.856,0,0,1,.345-.688.86.86,0,0,1,.757-.133l15.436,4.6a.858.858,0,0,1,.614.823v34.3A.859.859,0,0,1-8.735,393.249Zm-14.576-1.713h13.72v-32.8l-13.72-4.091Z" transform="translate(36.547 24.347)" fill="#222121"/>
    <path id="Path_4124" data-name="Path 4124" d="M-11.639,409.243h-20.58a.857.857,0,0,1-.857-.857V350.975a.854.854,0,0,1,.555-.8l20.577-7.76a.867.867,0,0,1,.79.1.858.858,0,0,1,.371.706v65.168A.857.857,0,0,1-11.639,409.243Zm-19.723-1.713H-12.5V344.458l-18.864,7.111Z" transform="translate(24.017 8.354)" fill="#222121"/>
    <path id="Path_4125" data-name="Path 4125" d="M-19.688,417.6h-20.58a.857.857,0,0,1-.857-.857v-69.5a.857.857,0,0,1,.5-.78l20.58-9.391a.863.863,0,0,1,.818.059.858.858,0,0,1,.394.721V416.74A.857.857,0,0,1-19.688,417.6Zm-19.723-1.713h18.864v-76.7l-18.864,8.609Z" transform="translate(11.486 0)" fill="#222121"/>
    <path id="Path_4126" data-name="Path 4126" d="M31.243,369.562H-47.645a.857.857,0,0,1-.857-.857.857.857,0,0,1,.857-.857H31.243a.857.857,0,0,1,0,1.713Z" transform="translate(0 48.034)" fill="#222121"/>
    <rect id="Rectangle_132" data-name="Rectangle 132" width="3.43" height="6.859" transform="translate(-25.351 353.287)" fill="#222121"/>
    <rect id="Rectangle_133" data-name="Rectangle 133" width="3.43" height="6.859" transform="translate(-20.206 353.287)" fill="#222121"/>
    <rect id="Rectangle_134" data-name="Rectangle 134" width="3.43" height="6.859" transform="translate(-15.062 353.287)" fill="#222121"/>
    <rect id="Rectangle_135" data-name="Rectangle 135" width="3.43" height="6.86" transform="translate(-25.351 361.861)" fill="#222121"/>
    <rect id="Rectangle_136" data-name="Rectangle 136" width="3.43" height="6.86" transform="translate(-20.206 361.861)" fill="#222121"/>
    <rect id="Rectangle_137" data-name="Rectangle 137" width="3.43" height="6.86" transform="translate(-15.062 361.861)" fill="#222121"/>
    <rect id="Rectangle_138" data-name="Rectangle 138" width="3.43" height="6.86" transform="translate(-25.351 370.436)" fill="#222121"/>
    <rect id="Rectangle_139" data-name="Rectangle 139" width="3.43" height="6.86" transform="translate(-20.206 370.436)" fill="#222121"/>
    <rect id="Rectangle_140" data-name="Rectangle 140" width="3.43" height="6.86" transform="translate(-15.062 370.436)" fill="#222121"/>
    <rect id="Rectangle_141" data-name="Rectangle 141" width="3.43" height="3.43" transform="translate(-4.772 361.861)" fill="#222121"/>
    <rect id="Rectangle_142" data-name="Rectangle 142" width="3.43" height="3.43" transform="translate(0.373 361.861)" fill="#222121"/>
    <rect id="Rectangle_143" data-name="Rectangle 143" width="3.43" height="3.43" transform="translate(5.518 361.861)" fill="#222121"/>
    <rect id="Rectangle_144" data-name="Rectangle 144" width="3.43" height="3.43" transform="translate(-4.772 367.006)" fill="#222121"/>
    <rect id="Rectangle_145" data-name="Rectangle 145" width="3.43" height="3.43" transform="translate(0.373 367.006)" fill="#222121"/>
    <rect id="Rectangle_146" data-name="Rectangle 146" width="3.43" height="3.43" transform="translate(5.518 367.006)" fill="#222121"/>
    <rect id="Rectangle_147" data-name="Rectangle 147" width="3.43" height="3.43" transform="translate(-4.772 372.151)" fill="#222121"/>
    <rect id="Rectangle_148" data-name="Rectangle 148" width="3.43" height="3.43" transform="translate(0.373 372.151)" fill="#222121"/>
    <rect id="Rectangle_149" data-name="Rectangle 149" width="3.43" height="3.43" transform="translate(5.518 372.151)" fill="#222121"/>
    <rect id="Rectangle_150" data-name="Rectangle 150" width="3.43" height="3.43" transform="translate(-4.772 377.296)" fill="#222121"/>
    <rect id="Rectangle_151" data-name="Rectangle 151" width="3.43" height="3.43" transform="translate(0.373 377.296)" fill="#222121"/>
    <rect id="Rectangle_152" data-name="Rectangle 152" width="3.43" height="3.43" transform="translate(5.518 377.296)" fill="#222121"/>
    <rect id="Rectangle_153" data-name="Rectangle 153" width="3.43" height="3.43" transform="translate(-4.772 382.441)" fill="#222121"/>
    <rect id="Rectangle_154" data-name="Rectangle 154" width="3.43" height="3.43" transform="translate(0.373 382.441)" fill="#222121"/>
    <rect id="Rectangle_155" data-name="Rectangle 155" width="3.43" height="3.43" transform="translate(5.518 382.441)" fill="#222121"/>
    <rect id="Rectangle_156" data-name="Rectangle 156" width="3.43" height="3.43" transform="translate(-4.772 387.585)" fill="#222121"/>
    <rect id="Rectangle_157" data-name="Rectangle 157" width="3.43" height="3.43" transform="translate(0.373 387.585)" fill="#222121"/>
    <rect id="Rectangle_158" data-name="Rectangle 158" width="3.43" height="3.43" transform="translate(5.518 387.585)" fill="#222121"/>
    <rect id="Rectangle_159" data-name="Rectangle 159" width="3.43" height="3.43" transform="translate(-4.772 392.73)" fill="#222121"/>
    <rect id="Rectangle_160" data-name="Rectangle 160" width="3.43" height="3.43" transform="translate(0.373 392.73)" fill="#222121"/>
    <rect id="Rectangle_161" data-name="Rectangle 161" width="3.43" height="3.43" transform="translate(5.518 392.73)" fill="#222121"/>
    <rect id="Rectangle_162" data-name="Rectangle 162" width="8.574" height="3.43" transform="translate(15.807 387.585)" fill="#222121"/>
    <rect id="Rectangle_163" data-name="Rectangle 163" width="8.574" height="3.43" transform="translate(15.807 392.73)" fill="#222121"/>
    <rect id="Rectangle_164" data-name="Rectangle 164" width="8.574" height="3.43" transform="translate(15.807 397.875)" fill="#222121"/>
    <rect id="Rectangle_165" data-name="Rectangle 165" width="8.575" height="3.43" transform="translate(-40.786 368.721)" fill="#222121"/>
    <rect id="Rectangle_166" data-name="Rectangle 166" width="8.575" height="3.43" transform="translate(-40.786 373.866)" fill="#222121"/>
    <rect id="Rectangle_167" data-name="Rectangle 167" width="8.575" height="3.43" transform="translate(-40.786 379.011)" fill="#222121"/>
    <rect id="Rectangle_168" data-name="Rectangle 168" width="8.575" height="3.43" transform="translate(-40.786 384.156)" fill="#222121"/>
    <rect id="Rectangle_169" data-name="Rectangle 169" width="8.575" height="3.43" transform="translate(-40.786 389.301)" fill="#222121"/>
    <rect id="Rectangle_170" data-name="Rectangle 170" width="8.575" height="3.43" transform="translate(-40.786 394.445)" fill="#222121"/>
    <rect id="Rectangle_171" data-name="Rectangle 171" width="8.575" height="3.43" transform="translate(-40.786 399.59)" fill="#222121"/>
    <rect id="Rectangle_172" data-name="Rectangle 172" width="8.575" height="3.43" transform="translate(-40.786 404.735)" fill="#222121"/>
    <rect id="Rectangle_173" data-name="Rectangle 173" width="8.575" height="3.43" transform="translate(-40.786 409.881)" fill="#222121"/>
    <rect id="Rectangle_174" data-name="Rectangle 174" width="8.574" height="3.43" transform="translate(15.807 403.021)" fill="#222121"/>
    <rect id="Rectangle_175" data-name="Rectangle 175" width="3.43" height="3.43" transform="translate(-4.772 397.875)" fill="#222121"/>
    <rect id="Rectangle_176" data-name="Rectangle 176" width="3.43" height="3.43" transform="translate(0.373 397.875)" fill="#222121"/>
    <rect id="Rectangle_177" data-name="Rectangle 177" width="3.43" height="3.43" transform="translate(5.518 397.875)" fill="#222121"/>
    <rect id="Rectangle_178" data-name="Rectangle 178" width="3.43" height="3.43" transform="translate(-4.772 403.021)" fill="#222121"/>
    <rect id="Rectangle_179" data-name="Rectangle 179" width="3.43" height="3.43" transform="translate(0.373 403.021)" fill="#222121"/>
    <rect id="Rectangle_180" data-name="Rectangle 180" width="3.43" height="3.43" transform="translate(5.518 403.021)" fill="#222121"/>
    <rect id="Rectangle_181" data-name="Rectangle 181" width="3.43" height="3.43" transform="translate(-4.772 408.165)" fill="#222121"/>
    <rect id="Rectangle_182" data-name="Rectangle 182" width="3.43" height="3.43" transform="translate(0.373 408.165)" fill="#222121"/>
    <rect id="Rectangle_183" data-name="Rectangle 183" width="3.43" height="3.43" transform="translate(5.518 408.165)" fill="#222121"/>
    <rect id="Rectangle_184" data-name="Rectangle 184" width="3.43" height="6.86" transform="translate(-25.351 379.011)" fill="#222121"/>
    <rect id="Rectangle_185" data-name="Rectangle 185" width="3.43" height="6.86" transform="translate(-20.206 379.011)" fill="#222121"/>
    <rect id="Rectangle_186" data-name="Rectangle 186" width="3.43" height="6.86" transform="translate(-15.062 379.011)" fill="#222121"/>
    <rect id="Rectangle_187" data-name="Rectangle 187" width="3.43" height="6.86" transform="translate(-25.351 387.585)" fill="#222121"/>
    <rect id="Rectangle_188" data-name="Rectangle 188" width="3.43" height="6.86" transform="translate(-20.206 387.585)" fill="#222121"/>
    <rect id="Rectangle_189" data-name="Rectangle 189" width="3.43" height="6.86" transform="translate(-15.062 387.585)" fill="#222121"/>
    <rect id="Rectangle_190" data-name="Rectangle 190" width="3.43" height="6.86" transform="translate(-25.351 396.161)" fill="#222121"/>
    <rect id="Rectangle_191" data-name="Rectangle 191" width="3.43" height="6.86" transform="translate(-20.206 396.161)" fill="#222121"/>
    <rect id="Rectangle_192" data-name="Rectangle 192" width="3.43" height="6.86" transform="translate(-15.062 396.161)" fill="#222121"/>
    <rect id="Rectangle_193" data-name="Rectangle 193" width="3.43" height="6.86" transform="translate(-25.351 404.735)" fill="#222121"/>
    <rect id="Rectangle_194" data-name="Rectangle 194" width="3.43" height="6.86" transform="translate(-20.206 404.735)" fill="#222121"/>
    <rect id="Rectangle_195" data-name="Rectangle 195" width="3.43" height="6.86" transform="translate(-15.062 404.735)" fill="#222121"/>
    <path id="Path_4127" data-name="Path 4127" d="M-6.459,347.955H-16.75a3.434,3.434,0,0,1-3.429-3.429H-23.61a3.435,3.435,0,0,1-3.429-3.431,3.432,3.432,0,0,1,3.429-3.429h10.291a3.431,3.431,0,0,1,3.429,3.429h3.431a3.435,3.435,0,0,1,3.429,3.431A3.434,3.434,0,0,1-6.459,347.955Zm-17.151-8.576a1.717,1.717,0,0,0-1.713,1.716,1.717,1.717,0,0,0,1.713,1.716h4.439a.858.858,0,0,1,.7.363.857.857,0,0,1,.107.78,1.72,1.72,0,0,0-.1.573,1.717,1.717,0,0,0,1.716,1.713H-6.459a1.717,1.717,0,0,0,1.716-1.713,1.718,1.718,0,0,0-1.716-1.716H-10.9a.855.855,0,0,1-.7-.363.862.862,0,0,1-.11-.782,1.7,1.7,0,0,0,.1-.57,1.717,1.717,0,0,0-1.716-1.716Z" transform="translate(33.414 1.044)" fill="#222121"/>
  </g>
</svg>
