<svg id="investment" xmlns="http://www.w3.org/2000/svg" width="45.368" height="40.251" viewBox="0 0 45.368 40.251">
  <g id="Group_125" data-name="Group 125">
    <path id="Path_34" data-name="Path 34" d="M104.195,118.741a12.249,12.249,0,1,0,12.249-12.249A12.248,12.248,0,0,0,104.195,118.741Zm12.249-10.559a10.559,10.559,0,1,1-10.559,10.559A10.559,10.559,0,0,1,116.444,108.181Zm0,0" transform="translate(-93.232 -106.492)" fill="#fff"/>
    <path id="Path_35" data-name="Path 35" d="M39.984,329.721l-6.617,3.126a5.389,5.389,0,0,0-4.595-2.835l-6.108-.168a6.452,6.452,0,0,1-2.776-.717l-.622-.322a10.963,10.963,0,0,0-10.155.011l.039-1.408a.845.845,0,0,0-.821-.868l-6.7-.184a.844.844,0,0,0-.867.821l-.4,14.7a.845.845,0,0,0,.821.868l6.7.184H7.9a.845.845,0,0,0,.845-.822l.019-.7,1.74-.932a2.984,2.984,0,0,1,2.228-.244l10.391,2.916.055.014a11.129,11.129,0,0,0,2.284.236,11.27,11.27,0,0,0,4.708-1.027.783.783,0,0,0,.1-.058l15.066-9.745a.845.845,0,0,0,.277-1.125,4.267,4.267,0,0,0-5.635-1.717ZM2.072,341.078l.358-13.01,5.009.138-.358,13.01Zm27.338-.221a9.577,9.577,0,0,1-5.857.654L13.191,338.6a4.67,4.67,0,0,0-3.482.381l-.889.476.238-8.65a9.285,9.285,0,0,1,9.432-.5l.622.322a8.159,8.159,0,0,0,3.507.906l6.109.168a3.7,3.7,0,0,1,3.521,2.952l-9.1-.251a.845.845,0,0,0-.047,1.689l10.041.276h.024a.845.845,0,0,0,.844-.822,5.361,5.361,0,0,0-.082-1.1l6.787-3.207.02-.009a2.581,2.581,0,0,1,2.918.409Zm0,0" transform="translate(-0.36 -303.142)" fill="#fff"/>
    <text id="_" data-name="₹" transform="translate(19.37 17.553)" fill="#d1a570" font-size="14" font-family="Roboto-Medium, Roboto" font-weight="500"><tspan x="0" y="0">₹</tspan></text>
  </g>
</svg>
