<svg id="rates" xmlns="http://www.w3.org/2000/svg" width="39.829" height="31.913" viewBox="0 0 39.829 31.913">
  <g id="Group_128" data-name="Group 128" transform="translate(0 12.094)">
    <g id="Group_115" data-name="Group 115">
      <path id="Path_39" data-name="Path 39" d="M189.93,315.605a3.8,3.8,0,0,0-3.5,5.285l-7.3,7.3a3.8,3.8,0,0,0-3.284-.017l-4.85-4.85a3.8,3.8,0,1,0-6.995.208l-4.652,4.652a3.8,3.8,0,1,0,1.795,1.791l4.626-4.626a3.791,3.791,0,0,0,3.562-.1l4.713,4.713a3.8,3.8,0,1,0,6.866.036l7.236-7.236a3.8,3.8,0,1,0,1.789-7.158Zm-32.222,17.284a1.268,1.268,0,1,1,.877-2.181l.015.016.019.017a1.266,1.266,0,0,1-.911,2.148Zm9.74-9.677a1.268,1.268,0,1,1,1.268-1.268A1.269,1.269,0,0,1,167.448,323.211Zm10.016,9.672a1.268,1.268,0,1,1,1.268-1.268A1.269,1.269,0,0,1,177.464,332.883Zm12.466-12.207a1.268,1.268,0,1,1,1.268-1.268A1.269,1.269,0,0,1,189.93,320.676Z" transform="translate(-153.905 -315.605)" fill="#d1a570"/>
    </g>
  </g>
  <g id="Group_134" data-name="Group 134">
    <g id="Group_115-2" data-name="Group 115">
      <path id="Path_39-2" data-name="Path 39" d="M189.93,315.605a3.8,3.8,0,0,0-3.5,5.285l-7.3,7.3a3.8,3.8,0,0,0-3.284-.017l-4.85-4.85a3.8,3.8,0,1,0-6.995.208l-4.652,4.652a3.8,3.8,0,1,0,1.795,1.791l4.626-4.626a3.791,3.791,0,0,0,3.562-.1l4.713,4.713a3.8,3.8,0,1,0,6.866.036l7.236-7.236a3.8,3.8,0,1,0,1.789-7.158Zm-32.222,17.284a1.268,1.268,0,1,1,.877-2.181l.015.016.019.017a1.266,1.266,0,0,1-.911,2.148Zm9.74-9.677a1.268,1.268,0,1,1,1.268-1.268A1.269,1.269,0,0,1,167.448,323.211Zm10.016,9.672a1.268,1.268,0,1,1,1.268-1.268A1.269,1.269,0,0,1,177.464,332.883Zm12.466-12.207a1.268,1.268,0,1,1,1.268-1.268A1.269,1.269,0,0,1,189.93,320.676Z" transform="translate(-153.905 -315.605)" fill="#fff"/>
    </g>
  </g>
</svg>
