<?xml version="1.0" encoding="utf-8"?>
<!-- Generator: Adobe Illustrator 19.0.0, SVG Export Plug-In . SVG Version: 6.00 Build 0)  -->
<svg version="1.1" id="Layer_1" xmlns="http://www.w3.org/2000/svg" xmlns:xlink="http://www.w3.org/1999/xlink" x="0px" y="0px"
	 viewBox="-227 369 157 55" style="enable-background:new -227 369 157 55;" xml:space="preserve">
<style type="text/css">
	.st0{enable-background:new    ;}
	.st1{fill:#222121;}
	.st2{fill:#D1A570;}
</style>
<g id="Group_355" transform="translate(-526 -32)">
	<g class="st0">
		<path class="st1" d="M306.2,434.9l0.2-0.3c0.1-0.1,0.1-0.2,0.1-0.4l0.5-1.5c0.2-0.5,0.3-0.8,0.3-0.9l0.1-0.4l0.3-0.5l0.1-0.6
			c0.1-0.4,0.3-1,0.6-1.8l0-0.3l0.2-0.5v-0.1c0-0.1,0-0.2-0.1-0.2h-0.2c-0.3,0-0.4,0.1-0.4,0.2l-0.2,0.6c0,0.2-0.1,0.3-0.4,0.3
			c0,0-0.1,0-0.2-0.1s-0.2-0.1-0.2-0.1c-0.1,0.2-0.2,0.4-0.3,0.6c-0.1,0.1-0.4,0.2-0.7,0.5l-0.2,0c-0.2,0.2-0.4,0.5-0.7,0.7
			l-0.1,0.1c-0.2,0.3-0.5,0.5-0.8,0.5c-0.5,0-0.7-0.3-0.7-1c0-0.4,0.2-0.7,0.6-0.9c0.4-0.2,0.6-0.4,0.8-0.6c0.1-0.2,0.4-0.4,0.9-0.7
			l0.2-0.3c0.1-0.2,0.2-0.2,0.3-0.2l0.4-0.1c0.1-0.1,0.2-0.1,0.4-0.1l0-0.3c0-0.1,0.2-0.2,0.5-0.3c0.1-0.1,0.3-0.2,0.6-0.5
			c0.3-0.2,0.8-0.8,1.6-1.8c0.1-0.1,0.2-0.3,0.3-0.3c0.2-0.1,0.3-0.2,0.4-0.3h0.4c0.1,0,0.4,0.2,0.8,0.6c0.4,0.4,0.6,0.9,0.6,1.5
			l-0.6,2.8l0,0.2l0,0.2c0,0.1,0,0.1,0.1,0.1c0.1,0,0.2-0.1,0.4-0.3c0.1-0.3,0.3-0.5,0.5-0.6c0.3-0.1,0.5-0.3,0.6-0.5
			c0.1-0.2,0.3-0.3,0.5-0.4c0.2-0.1,0.5-0.3,0.9-0.6c0.4-0.3,0.7-0.5,1-0.5l0.2-0.1l0.1-0.3c0.3-0.2,0.5-0.4,0.8-0.6l0.5-0.4
			c0.6-0.2,1.1-0.3,1.4-0.3c0.1,0,0.3-0.1,0.4-0.2l0.5,0.2c0,0,0.1,0,0.2-0.1c0,0,0,0,0.1,0c0.6,0,1.1,0.2,1.5,0.7
			c0.4,0.5,0.6,1,0.6,1.5c0,0,0,0.1-0.1,0.2c0,0.1-0.1,0.2-0.1,0.3l0.1,0.3v0l-0.5,1.2c0,0.1-0.1,0.5-0.3,1.2
			c-0.3,0.4-0.6,0.8-1,1.2s-0.6,0.7-0.7,0.9c0.1,0.1,0.1,0.1,0.2,0.1c0.1,0,0.3-0.1,0.6-0.4l1-0.6l0.2,0.1c0.2-0.1,0.4-0.3,0.6-0.5
			c0.2-0.2,0.4-0.3,0.6-0.3c0.1-0.1,0.2-0.3,0.4-0.4l0.2-0.2c0.1,0,0.2,0,0.3-0.1c0.1-0.1,0.2-0.2,0.4-0.2c0.1,0,0.3-0.1,0.5-0.3
			s0.3-0.3,0.4-0.3c0.1,0,0.2-0.1,0.2-0.2c0.5-0.5,0.9-0.8,1.1-0.8l0.3-0.1c0,0,0.1,0,0.1,0c0.2,0,0.3,0.2,0.4,0.5l-0.3,0.4v0.2
			l0.1,0.2c0,0.1-0.1,0.3-0.3,0.5c-0.2,0.2-0.4,0.3-0.6,0.3c-0.2,0.1-0.4,0.2-0.4,0.4c-0.1,0.1-0.3,0.3-0.6,0.6
			c-0.4,0.3-0.6,0.5-0.7,0.7s-0.2,0.3-0.4,0.3l-0.4-0.1c-0.3,0.4-0.6,0.6-0.7,0.6h-0.1l-0.1,0l-0.3,0.5c-0.2,0-0.3,0.1-0.4,0.1
			l-0.2,0c-0.9,0.9-1.4,1.3-1.7,1.3l-0.4,0c0,0-0.1,0.1-0.2,0.2s-0.2,0.3-0.3,0.4c-0.1,0.1-0.2,0.2-0.3,0.3h-0.5
			c-0.1,0-0.3,0.1-0.6,0.4c0,0,0,0,0,0l-0.3-0.1h0c-0.1,0-0.3,0.1-0.6,0.3l-0.7,0.3c0,0,0,0,0,0l-0.5-0.1c-0.1,0-0.2,0.1-0.4,0.2
			l-0.2,0.1c-0.1,0-0.2,0.1-0.5,0.2l-0.7,0.3c-0.1,0-0.1,0-0.2,0l-0.4,0l-0.3-0.1c-0.1,0-0.2,0.1-0.3,0.3c0,0,0,0-0.1,0
			c0,0-0.1,0-0.2,0h-0.3l-0.5,0.1c-0.1,0-0.3-0.1-0.6-0.3c-0.3-0.2-0.5-0.4-0.6-0.6l-0.2-0.3c-0.2-0.1-0.3-0.2-0.4-0.3l-0.2,0.1
			c0,0.1-0.1,0.2-0.2,0.3s-0.2,0.2-0.2,0.3c0,0.2-0.1,0.4-0.2,0.7s-0.3,0.9-0.6,1.6l-0.3,0.3c-0.1,0.1-0.1,0.1-0.1,0.2
			c0,0.1-0.1,0.4-0.3,0.7c0,0.4-0.2,0.7-0.4,1.1l-0.1,0.2v0.3c0,0.1-0.1,0.4-0.4,1.1l0,0.5c-0.1,0-0.2,0.3-0.4,0.8
			c-0.2,0.6-0.5,1-0.7,1.4l-0.2,0.7l-0.2,0.4l-0.1,0.4c0,0.1-0.1,0.1-0.1,0.2l0,0.2l-0.1,0.1c0,0.2-0.1,0.6-0.4,1.1
			c0,0.1-0.1,0.2-0.2,0.3s-0.3,0.4-0.5,0.6c-0.2,0.3-0.5,0.5-0.8,0.8l-0.9,0.6c-0.7,0-1.2-0.4-1.4-1.1c0-0.1-0.2-0.3-0.4-0.7
			c-0.3-0.4-0.4-1-0.4-1.7l0.2-0.9c0.1-0.8,0.3-1.3,0.4-1.5l0.3-0.6c0-0.1,0.1-0.2,0.2-0.3c0.1-0.1,0.1-0.3,0.2-0.5
			c0.1-0.2,0.3-0.4,0.6-0.6c0.2-0.5,0.4-0.9,0.6-1.2l0.3-0.6c0-0.2,0.2-0.4,0.5-0.6c0.1-0.3,0.3-0.5,0.5-0.8
			c0.2-0.3,0.4-0.4,0.5-0.5c0.1-0.1,0.1-0.2,0.2-0.5c0.1-0.3,0.2-0.5,0.4-0.6c0.2-0.1,0.3-0.2,0.3-0.3l0.2-0.4
			c0.1-0.1,0.3-0.3,0.4-0.5c0.1-0.2,0.3-0.4,0.5-0.5C305.9,435.1,306.1,434.9,306.2,434.9z M301.2,446.8c0.1,0,0.4-0.6,1.1-1.7
			l0.2-0.4c0.1-0.2,0.3-0.4,0.4-0.6l0-0.2c0.1-0.1,0.1-0.2,0.2-0.3l1.2-3.1c0.2-0.5,0.3-0.8,0.3-1s0.2-0.8,0.6-1.8
			c-0.1,0-0.2,0.1-0.3,0.3c-0.1,0.2-0.2,0.3-0.2,0.3l-0.3,0c0,0-0.1,0.3-0.3,0.8l-0.1,0.1c-0.2,0-0.4,0.1-0.4,0.3l-0.4,0.8v0.3
			c0,0.3-0.3,0.7-0.8,1c-0.2,0.4-0.3,0.6-0.3,0.6h-0.2l0.1,0.4c0,0.3-0.1,0.6-0.3,0.8s-0.3,0.4-0.3,0.4l0,0.4l0,0.4
			c-0.2,0.4-0.3,0.9-0.3,1.5V446.8z M311.5,432.4l0.8-0.1c0.4-0.1,0.6-0.1,0.7-0.1c0,0,0.1,0,0.2,0.1s0.2,0.1,0.3,0.1
			s0.3,0.2,0.4,0.5c0.7-0.3,1.1-0.6,1.3-0.7c0.1-0.1,0.3-0.2,0.4-0.2c0,0,0.1,0,0.1,0c0-0.1,0.1-0.2,0.1-0.3c0-0.1,0.1-0.2,0.3-0.4
			s0.4-0.4,0.8-0.9l0.7-0.8l0.8-1.1c0.2-0.3,0.3-0.6,0.5-1l0.1-0.3c0.1-0.2,0.1-0.3,0.1-0.3c0-0.1-0.1-0.3-0.3-0.7l-0.5,0.2v0
			c-0.2-0.1-0.3-0.2-0.4-0.2c-0.1,0-0.2,0.1-0.2,0.2s-0.2,0.2-0.3,0.2c-0.1,0-0.3,0.1-0.4,0.2c-0.1,0.1-0.2,0.2-0.4,0.2
			c-0.2,0-0.3,0.1-0.5,0.3l-0.3,0l-0.2,0.1l-0.3-0.1c-0.3,0.3-0.5,0.6-0.6,0.6c-0.1,0.1-0.3,0.3-0.5,0.6h-0.3
			c-0.1,0-0.2,0.2-0.3,0.5c-0.1,0.1-0.3,0.2-0.4,0.4l-0.5,0.2c-0.1,0.2-0.2,0.3-0.4,0.4l-0.8,1.1c-0.1,0.1-0.1,0.1-0.2,0.1
			c-0.1,0-0.1,0-0.2,0.1l0.1,0.4h-0.1c-0.3,0.2-0.6,0.5-0.6,1l-0.1,0.5c0,0.1,0,0.1,0.1,0.1s0.1,0,0.2-0.2c0.1-0.1,0.3-0.2,0.5-0.4
			C311.2,432.5,311.4,432.4,311.5,432.4z"/>
		<path class="st1" d="M327.8,425.7l0.3-0.1l0.1-0.3c0.7-0.4,1.2-0.8,1.5-1.2c0-0.1,0.1-0.1,0.2-0.2c0.1-0.1,0.2-0.2,0.3-0.3
			c0.5-0.5,1.2-0.8,1.9-0.8c0.9,0,1.3,0.5,1.4,1.6l0.1,0.3c0.1,0.2,0.3,0.6,0.5,1.2c0.2,0.6,0.3,1,0.3,1.1c0,0.4-0.1,0.8-0.4,1.2
			c-0.2,0.1-0.7,0.6-1.4,1.6l-0.2,0.2c-0.1,0.3-0.3,0.5-0.5,0.8c-0.3,0.1-0.4,0.2-0.4,0.3v0.4c0,0,0,0.1-0.1,0.2s-0.2,0.3-0.3,0.5
			l-0.2,0.3c-0.1,0.1-0.1,0.2-0.2,0.4s-0.1,0.3-0.2,0.5c-0.1,0.1-0.2,0.3-0.2,0.3c0,0.2,0.3,0.3,0.8,0.3c0,0,0.1,0,0.3-0.1l0.3,0.1
			c0,0,0.1,0,0.2-0.1s0.3-0.2,0.5-0.2c0.2-0.1,0.4-0.1,0.6-0.3c0.2-0.1,0.4-0.2,0.6-0.3s0.5-0.2,0.7-0.4c0.2-0.2,0.5-0.3,0.7-0.4
			c0.2-0.1,0.4-0.2,0.6-0.4s0.4-0.3,0.7-0.5c0.2-0.2,0.6-0.5,1.2-1c0.3-0.3,0.6-0.4,0.7-0.5c0,0,0.2-0.2,0.4-0.6
			c0.2-0.4,0.5-0.6,0.8-0.6c0.3,0,0.5,0.1,0.5,0.4c0,0.2-0.1,0.3-0.2,0.5v0.1l0,0.3c0,0,0,0.1,0,0.2c0,0.1-0.1,0.1-0.2,0.3
			c-0.1,0.1-0.2,0.3-0.2,0.4s-0.2,0.3-0.4,0.4c-0.1,0.3-0.2,0.5-0.3,0.5c-0.1,0-0.3,0.2-0.6,0.4c-0.2,0.2-0.6,0.5-1,0.9
			c-0.4,0.3-0.7,0.6-0.9,0.8s-0.3,0.3-0.3,0.3c0,0-0.1,0-0.2-0.1c-0.1-0.1-0.1-0.1-0.2-0.1c-0.1,0-0.1,0.1-0.2,0.3l-0.1,0.2
			c-0.2,0.1-0.3,0.2-0.3,0.2l-0.1,0h-0.1c-0.2,0-0.3,0.1-0.3,0.2l0.1,0.2v0c0,0.2-0.1,0.3-0.3,0.3c-0.2,0-0.6,0.3-1.4,0.8l-0.6,0.1
			l-0.5,0.3c-0.2-0.1-0.3-0.2-0.3-0.2l-0.3,0.1l-0.6,0c0,0-0.3-0.1-0.8-0.4c-0.5-0.3-0.8-0.6-0.9-0.9c-0.1-0.3-0.2-0.6-0.4-0.9
			s-0.2-0.5-0.2-0.6c0-0.7,0.1-1.2,0.2-1.5s0.2-0.5,0.2-0.7c0-0.1,0.1-0.3,0.2-0.5s0.2-0.4,0.3-0.8c0.4-0.8,0.7-1.3,0.9-1.5
			c0.2-0.2,0.3-0.4,0.4-0.7l0.3-0.4c0,0,0.1-0.1,0.1-0.3s0.1-0.3,0.2-0.3c0.1-0.2,0.2-0.3,0.2-0.4c0-0.4-0.2-0.6-0.6-0.6
			c-0.1,0-0.2,0.1-0.2,0.2s-0.3,0.3-0.6,0.4c-0.3,0.1-0.5,0.3-0.6,0.3c-0.1,0.1-0.2,0.2-0.5,0.3s-0.4,0.3-0.6,0.5l-0.4,0.2
			c-0.1,0.3-0.2,0.4-0.3,0.5c-0.1,0-0.4,0.1-0.8,0.2c0,0-0.1,0.1-0.2,0.3c-0.1,0.2-0.3,0.2-0.5,0.2c-0.2,0.2-0.3,0.4-0.5,0.6
			c-0.1,0-0.2,0.1-0.5,0.2l-0.4,0.1c-0.1,0.1-0.2,0.2-0.4,0.4c-0.1,0.2-0.4,0.3-0.8,0.3c-0.2,0-0.3-0.2-0.3-0.5
			c0-0.7,0.2-1.3,0.7-1.7c0.5-0.4,0.9-0.6,1.1-0.7c0.2,0,0.4-0.1,0.4-0.3c0.1-0.1,0.2-0.3,0.4-0.4c0.2-0.1,0.5-0.3,0.8-0.6
			c0.3-0.3,0.6-0.5,1-0.7L327.8,425.7z"/>
		<path class="st1" d="M374.8,434.9l0.2-0.3c0.1-0.1,0.1-0.2,0.1-0.4l0.5-1.5c0.2-0.5,0.3-0.8,0.3-0.9l0.1-0.4l0.3-0.5l0.1-0.6
			c0.1-0.4,0.3-1,0.6-1.8l0-0.3l0.2-0.5v-0.1c0-0.1,0-0.2-0.1-0.2H377c-0.3,0-0.4,0.1-0.4,0.2l-0.2,0.6c0,0.2-0.1,0.3-0.4,0.3
			c0,0-0.1,0-0.2-0.1s-0.2-0.1-0.2-0.1c-0.1,0.2-0.2,0.4-0.3,0.6c-0.1,0.1-0.4,0.2-0.7,0.5l-0.2,0c-0.2,0.2-0.4,0.5-0.7,0.7
			l-0.1,0.1c-0.2,0.3-0.5,0.5-0.8,0.5c-0.5,0-0.7-0.3-0.7-1c0-0.4,0.2-0.7,0.6-0.9c0.4-0.2,0.6-0.4,0.8-0.6c0.1-0.2,0.4-0.4,0.9-0.7
			l0.2-0.3c0.1-0.2,0.2-0.2,0.3-0.2l0.4-0.1c0.1-0.1,0.2-0.1,0.4-0.1l0-0.3c0-0.1,0.2-0.2,0.5-0.3c0.1-0.1,0.3-0.2,0.6-0.5
			c0.3-0.2,0.8-0.8,1.6-1.8c0.1-0.1,0.2-0.3,0.3-0.3c0.2-0.1,0.3-0.2,0.4-0.3h0.4c0.1,0,0.4,0.2,0.8,0.6c0.4,0.4,0.6,0.9,0.6,1.5
			l-0.6,2.8l0,0.2l0,0.2c0,0.1,0,0.1,0.1,0.1c0.1,0,0.2-0.1,0.4-0.3c0.1-0.3,0.3-0.5,0.5-0.6c0.3-0.1,0.5-0.3,0.6-0.5
			c0.1-0.2,0.3-0.3,0.5-0.4s0.5-0.3,0.9-0.6c0.4-0.3,0.7-0.5,1-0.5l0.2-0.1l0.1-0.3c0.3-0.2,0.5-0.4,0.8-0.6l0.5-0.4
			c0.6-0.2,1.1-0.3,1.4-0.3c0.1,0,0.3-0.1,0.4-0.2l0.5,0.2c0,0,0.1,0,0.2-0.1c0,0,0,0,0.1,0c0.6,0,1.1,0.2,1.5,0.7
			c0.4,0.5,0.6,1,0.6,1.5c0,0,0,0.1-0.1,0.2c0,0.1-0.1,0.2-0.1,0.3l0.1,0.3v0l-0.5,1.2c0,0.1-0.1,0.5-0.3,1.2
			c-0.3,0.4-0.6,0.8-1,1.2s-0.6,0.7-0.7,0.9c0.1,0.1,0.1,0.1,0.2,0.1c0.1,0,0.3-0.1,0.6-0.4l1-0.6l0.2,0.1c0.2-0.1,0.4-0.3,0.6-0.5
			c0.2-0.2,0.4-0.3,0.6-0.3c0.1-0.1,0.2-0.3,0.4-0.4l0.2-0.2c0.1,0,0.2,0,0.3-0.1c0.1-0.1,0.2-0.2,0.4-0.2c0.2,0,0.3-0.1,0.5-0.3
			s0.3-0.3,0.4-0.3c0.1,0,0.2-0.1,0.2-0.2c0.5-0.5,0.9-0.8,1.1-0.8l0.3-0.1c0,0,0.1,0,0.1,0c0.2,0,0.3,0.2,0.4,0.5l-0.3,0.4v0.2
			l0.1,0.2c0,0.1-0.1,0.3-0.3,0.5c-0.2,0.2-0.4,0.3-0.6,0.3c-0.2,0.1-0.4,0.2-0.4,0.4c0,0.1-0.3,0.3-0.6,0.6
			c-0.4,0.3-0.6,0.5-0.7,0.7s-0.2,0.3-0.4,0.3l-0.4-0.1c-0.3,0.4-0.6,0.6-0.7,0.6h-0.1l-0.1,0l-0.3,0.5c-0.2,0-0.3,0.1-0.4,0.1
			l-0.2,0c-0.9,0.9-1.4,1.3-1.7,1.3l-0.4,0c0,0-0.1,0.1-0.2,0.2s-0.2,0.3-0.3,0.4c-0.1,0.1-0.2,0.2-0.3,0.3h-0.5
			c-0.1,0-0.3,0.1-0.6,0.4c0,0,0,0,0,0l-0.3-0.1h0c-0.1,0-0.3,0.1-0.6,0.3l-0.7,0.3c0,0,0,0,0,0l-0.5-0.1c-0.1,0-0.2,0.1-0.4,0.2
			l-0.2,0.1c-0.1,0-0.2,0.1-0.5,0.2l-0.7,0.3c-0.1,0-0.1,0-0.2,0l-0.4,0l-0.3-0.1c-0.1,0-0.2,0.1-0.3,0.3c0,0,0,0-0.1,0
			c0,0-0.1,0-0.2,0h-0.3l-0.5,0.1c-0.1,0-0.3-0.1-0.6-0.3c-0.3-0.2-0.5-0.4-0.6-0.6l-0.2-0.3c-0.2-0.1-0.3-0.2-0.4-0.3l-0.2,0.1
			c0,0.1-0.1,0.2-0.2,0.3s-0.2,0.2-0.2,0.3c0,0.2-0.1,0.4-0.2,0.7s-0.3,0.9-0.6,1.6l-0.3,0.3c-0.1,0.1-0.1,0.1-0.1,0.2
			c0,0.1-0.1,0.4-0.3,0.7c0,0.4-0.2,0.7-0.4,1.1l-0.1,0.2v0.3c0,0.1-0.1,0.4-0.4,1.1l0,0.5c-0.1,0-0.2,0.3-0.4,0.8
			c-0.2,0.6-0.5,1-0.7,1.4l-0.2,0.7l-0.2,0.4l-0.1,0.4c0,0.1-0.1,0.1-0.1,0.2l0,0.2l-0.1,0.1c0,0.2-0.1,0.6-0.4,1.1
			c0,0.1-0.1,0.2-0.2,0.3s-0.3,0.4-0.5,0.6c-0.2,0.3-0.5,0.5-0.8,0.8l-0.9,0.6c-0.7,0-1.2-0.4-1.4-1.1c0-0.1-0.2-0.3-0.4-0.7
			c-0.3-0.4-0.4-1-0.4-1.7l0.2-0.9c0.1-0.8,0.3-1.3,0.4-1.5l0.3-0.6c0-0.1,0.1-0.2,0.2-0.3c0.1-0.1,0.1-0.3,0.2-0.5
			c0.1-0.2,0.3-0.4,0.6-0.6c0.2-0.5,0.4-0.9,0.6-1.2l0.3-0.6c0-0.2,0.2-0.4,0.5-0.6c0.1-0.3,0.3-0.5,0.5-0.8
			c0.2-0.3,0.4-0.4,0.5-0.5c0.1-0.1,0.1-0.2,0.2-0.5c0.1-0.3,0.2-0.5,0.4-0.6c0.2-0.1,0.3-0.2,0.3-0.3l0.2-0.4
			c0.1-0.1,0.3-0.3,0.4-0.5c0.1-0.2,0.3-0.4,0.5-0.5C374.5,435.1,374.6,434.9,374.8,434.9z M369.7,446.8c0.1,0,0.4-0.6,1.1-1.7
			l0.2-0.4c0.1-0.2,0.3-0.4,0.4-0.6l0-0.2c0.1-0.1,0.1-0.2,0.2-0.3l1.2-3.1c0.2-0.5,0.3-0.8,0.3-1s0.2-0.8,0.6-1.8
			c-0.1,0-0.2,0.1-0.3,0.3c-0.1,0.2-0.2,0.3-0.2,0.3l-0.3,0c0,0-0.1,0.3-0.3,0.8l-0.1,0.1c-0.2,0-0.4,0.1-0.4,0.3l-0.4,0.8v0.3
			c0,0.3-0.3,0.7-0.8,1c-0.2,0.4-0.3,0.6-0.3,0.6h-0.2l0.1,0.4c0,0.3-0.1,0.6-0.3,0.8s-0.3,0.4-0.3,0.4l0,0.4l0,0.4
			c-0.2,0.4-0.3,0.9-0.3,1.5V446.8z M380.1,432.4l0.8-0.1c0.4-0.1,0.6-0.1,0.7-0.1c0,0,0.1,0,0.2,0.1s0.2,0.1,0.3,0.1
			s0.3,0.2,0.4,0.5c0.7-0.3,1.1-0.6,1.3-0.7c0.1-0.1,0.3-0.2,0.4-0.2c0,0,0.1,0,0.1,0c0-0.1,0.1-0.2,0.1-0.3c0-0.1,0.1-0.2,0.3-0.4
			c0.2-0.1,0.4-0.4,0.8-0.9l0.7-0.8l0.8-1.1c0.2-0.3,0.3-0.6,0.5-1l0.1-0.3c0.1-0.2,0.1-0.3,0.1-0.3c0-0.1-0.1-0.3-0.3-0.7l-0.5,0.2
			v0c-0.2-0.1-0.3-0.2-0.4-0.2c-0.1,0-0.2,0.1-0.2,0.2c-0.1,0.1-0.2,0.2-0.3,0.2c-0.1,0-0.3,0.1-0.4,0.2c-0.1,0.1-0.2,0.2-0.4,0.2
			c-0.2,0-0.3,0.1-0.5,0.3l-0.3,0l-0.2,0.1l-0.3-0.1c-0.3,0.3-0.5,0.6-0.6,0.6c-0.1,0.1-0.3,0.3-0.5,0.6h-0.3
			c-0.1,0-0.2,0.2-0.3,0.5c-0.1,0.1-0.3,0.2-0.4,0.4l-0.5,0.2c-0.1,0.2-0.2,0.3-0.4,0.4l-0.8,1.1c-0.1,0.1-0.1,0.1-0.2,0.1
			c-0.1,0-0.1,0-0.2,0.1l0.1,0.4h-0.1c-0.3,0.2-0.6,0.5-0.6,1l-0.1,0.5c0,0.1,0,0.1,0.1,0.1s0.1,0,0.2-0.2c0.1-0.1,0.3-0.2,0.5-0.4
			C379.8,432.5,380,432.4,380.1,432.4z"/>
		<path class="st1" d="M395.3,427.4l0.5-0.4c0.3,0,0.5-0.2,0.6-0.5c0-0.3,0.3-0.6,0.7-0.9l0.3-0.4c0.2-0.2,0.8-0.5,1.8-0.8
			c0.2-0.1,0.4-0.3,0.5-0.4c0,0,0.1,0,0.1,0l0.3,0.1c0.2,0,0.4,0,0.7-0.2c0.3-0.1,0.6-0.2,0.8-0.2l0.9,0c0.1,0,0.2,0,0.4,0.1
			c0.2,0.1,0.4,0.1,0.7,0.1c0.3,0,0.6,0.1,0.9,0.4c0.3,0.3,0.4,0.6,0.4,0.8c0,0.4-0.2,0.9-0.7,1.4c-0.5,0.5-0.8,0.7-1.1,0.8
			c-0.2,0.2-0.4,0.4-0.6,0.5s-0.3,0.2-0.4,0.3c-0.1,0.1-0.2,0.2-0.3,0.2c-0.1,0-0.1,0-0.1-0.1c0,0-0.1-0.1-0.1-0.1
			c-0.2,0-0.5,0.3-0.8,0.8l-0.4,0c-0.2,0.2-0.4,0.3-0.5,0.5c-0.1,0.2-0.2,0.3-0.5,0.3c-0.5,0.5-0.9,0.8-1.1,0.8c0,0-0.1,0-0.3-0.1
			c-0.1,0.1-0.2,0.3-0.2,0.5c0,0.2-0.1,0.3-0.3,0.3l-0.3,0.3l-0.2,0l-0.4,0.5c-0.2,0-0.4,0.1-0.7,0.2c0,0.2-0.1,0.4-0.1,0.7
			s-0.1,0.4-0.1,0.4c0,0.4,0.4,0.6,1.1,0.6l1-0.2c0.3,0,0.5-0.1,0.8-0.2c0.2-0.1,0.5-0.2,0.8-0.2c0.1,0,0.2,0,0.4-0.1l0.2,0.1
			c0.1-0.2,0.3-0.4,0.6-0.6c0.3-0.2,0.5-0.3,0.6-0.3l0.2-0.1c0.1-0.2,0.1-0.3,0.3-0.3l0.2-0.2c0.1-0.1,0.2-0.2,0.3-0.2h0.3l0.1,0
			c0.2-0.4,0.4-0.6,0.7-0.7s0.5-0.2,0.6-0.3c0.1-0.1,0.2-0.2,0.4-0.3c0.2,0,0.4-0.1,0.5-0.3c0.1-0.2,0.3-0.3,0.5-0.5
			c0.2-0.1,0.3-0.3,0.4-0.3c0.1-0.1,0.1-0.1,0.2-0.1c0.1,0,0.1,0.1,0.1,0.2s0,0.2,0.1,0.2c0.1,0,0.1,0,0.1-0.1c0-0.1,0-0.1,0-0.2
			v-0.2c0-0.2,0.1-0.4,0.3-0.4l1-0.6c0-0.3,0.1-0.5,0.2-0.5c0.1,0,0.2-0.1,0.3-0.2s0.2-0.1,0.2-0.1c0.2,0,0.3,0.1,0.3,0.3l-0.1,0.6
			l0.1,0.6c0,0.1-0.1,0.2-0.2,0.4c-0.1,0.2-0.2,0.4-0.3,0.7c-0.1,0.3-0.2,0.5-0.3,0.5h-0.1c-0.3,0.3-0.5,0.4-0.6,0.5
			s-0.3,0.1-0.4,0.3l-0.7,0.8c-0.1,0.1-0.3,0.3-0.4,0.4c-0.1,0.1-0.2,0.2-0.2,0.2l-0.2-0.2c0,0,0,0-0.1,0c-0.1,0-0.2,0.1-0.3,0.3
			s-0.1,0.3-0.2,0.5c-0.4,0.2-0.7,0.4-0.8,0.6l-0.1,0h-0.4c-0.2,0-0.3,0.1-0.4,0.4s-0.3,0.4-0.6,0.5s-0.6,0.1-0.7,0.3
			c0,0-0.1,0.1-0.2,0.1c-0.1,0-0.3,0.1-0.6,0.3l-1.8,0.6c-0.1,0.1-0.2,0.1-0.3,0.1l-0.6,0.1c-0.1,0-0.2-0.1-0.3-0.2
			c-0.1-0.1-0.1-0.2-0.2-0.2l-0.4,0.1c-0.3,0.1-0.6,0.1-0.8,0.1c-0.1,0-0.3,0-0.5-0.2c-0.2-0.1-0.3-0.2-0.4-0.2
			c-0.4,0-0.7-0.3-0.9-1l-0.3,0c-0.1,0-0.3-0.5-0.6-1.5c-0.1-0.1-0.2-0.2-0.4-0.2s-0.3-0.2-0.3-0.4c0-0.6,0.1-1.1,0.4-1.3
			s0.4-0.4,0.5-0.5l0.3-1.1c0.1,0,0.1-0.2,0.2-0.4l0.5-0.9C394.9,428,395,427.8,395.3,427.4z M399.8,426.1l-0.3,0.1
			c-0.1,0-0.2,0.2-0.5,0.4c-0.3,0.2-0.6,0.4-0.8,0.5c-0.3,0.1-0.5,0.5-0.8,1.1c-0.3,0.6-0.4,0.9-0.4,1s0,0.1,0.1,0.1l0.7-0.3
			c0.3-0.1,0.5-0.3,0.8-0.5c0.2-0.2,0.6-0.4,1-0.7l0.2-0.2c0-0.1,0.2-0.2,0.4-0.3s0.4-0.3,0.5-0.4l0.2-0.1c0.2-0.4,0.5-0.6,0.7-0.7
			c0.3-0.1,0.4-0.2,0.4-0.3c0-0.2-0.1-0.3-0.4-0.3c-0.1,0-0.3,0.1-0.5,0.2h-0.5c-0.1,0-0.2,0.1-0.5,0.3L399.8,426.1z"/>
		<path class="st1" d="M410.6,425.7l0.3-0.1l0.1-0.3c0.7-0.4,1.2-0.8,1.5-1.2c0-0.1,0.1-0.1,0.2-0.2c0.1-0.1,0.2-0.2,0.3-0.3
			c0.5-0.5,1.2-0.8,1.9-0.8c0.9,0,1.3,0.5,1.4,1.6l0.1,0.3c0.1,0.2,0.3,0.6,0.5,1.2c0.2,0.6,0.3,1,0.3,1.1c0,0.4-0.1,0.8-0.4,1.2
			c-0.2,0.1-0.7,0.6-1.4,1.6l-0.2,0.2c-0.1,0.3-0.3,0.5-0.5,0.8c-0.3,0.1-0.4,0.2-0.4,0.3v0.4c0,0,0,0.1-0.1,0.2s-0.2,0.3-0.3,0.5
			l-0.2,0.3c-0.1,0.1-0.1,0.2-0.2,0.4c-0.1,0.2-0.1,0.3-0.2,0.5c-0.1,0.1-0.2,0.3-0.2,0.3c0,0.2,0.3,0.3,0.8,0.3c0,0,0.1,0,0.3-0.1
			l0.3,0.1c0,0,0.1,0,0.2-0.1c0.1-0.1,0.3-0.2,0.5-0.2c0.2-0.1,0.4-0.1,0.6-0.3c0.2-0.1,0.4-0.2,0.6-0.3c0.3-0.1,0.5-0.2,0.7-0.4
			c0.2-0.2,0.5-0.3,0.7-0.4c0.2-0.1,0.4-0.2,0.6-0.4s0.4-0.3,0.7-0.5c0.2-0.2,0.6-0.5,1.2-1c0.3-0.3,0.6-0.4,0.7-0.5
			c0,0,0.2-0.2,0.4-0.6c0.2-0.4,0.5-0.6,0.8-0.6c0.3,0,0.5,0.1,0.5,0.4c0,0.2-0.1,0.3-0.2,0.5v0.1l0,0.3c0,0,0,0.1,0,0.2
			c0,0.1-0.1,0.1-0.2,0.3c-0.1,0.1-0.2,0.3-0.2,0.4s-0.2,0.3-0.4,0.4c-0.1,0.3-0.2,0.5-0.3,0.5c-0.1,0-0.3,0.2-0.6,0.4
			c-0.2,0.2-0.6,0.5-1,0.9c-0.4,0.3-0.7,0.6-0.9,0.8c-0.2,0.2-0.3,0.3-0.3,0.3c0,0-0.1,0-0.2-0.1c-0.1-0.1-0.1-0.1-0.2-0.1
			c-0.1,0-0.1,0.1-0.2,0.3l-0.1,0.2c-0.2,0.1-0.3,0.2-0.3,0.2l-0.1,0h-0.1c-0.2,0-0.3,0.1-0.3,0.2l0.1,0.2v0c0,0.2-0.1,0.3-0.3,0.3
			c-0.2,0-0.6,0.3-1.4,0.8l-0.6,0.1l-0.5,0.3c-0.2-0.1-0.3-0.2-0.3-0.2l-0.3,0.1l-0.6,0c0,0-0.3-0.1-0.8-0.4
			c-0.5-0.3-0.8-0.6-0.9-0.9c-0.1-0.3-0.2-0.6-0.4-0.9s-0.2-0.5-0.2-0.6c0-0.7,0.1-1.2,0.2-1.5s0.2-0.5,0.2-0.7
			c0-0.1,0.1-0.3,0.2-0.5s0.2-0.4,0.3-0.8c0.4-0.8,0.7-1.3,0.9-1.5c0.2-0.2,0.3-0.4,0.4-0.7l0.3-0.4c0,0,0.1-0.1,0.1-0.3
			s0.1-0.3,0.2-0.3c0.1-0.2,0.2-0.3,0.2-0.4c0-0.4-0.2-0.6-0.6-0.6c-0.1,0-0.2,0.1-0.2,0.2s-0.3,0.3-0.6,0.4
			c-0.3,0.1-0.5,0.3-0.6,0.3c-0.1,0.1-0.2,0.2-0.5,0.3s-0.4,0.3-0.6,0.5l-0.4,0.2c-0.1,0.3-0.2,0.4-0.3,0.5c-0.1,0-0.4,0.1-0.8,0.2
			c0,0-0.1,0.1-0.2,0.3c-0.1,0.2-0.3,0.2-0.5,0.2c-0.2,0.2-0.3,0.4-0.5,0.6c-0.1,0-0.2,0.1-0.5,0.2l-0.4,0.1
			c-0.1,0.1-0.2,0.2-0.4,0.4c-0.1,0.2-0.4,0.3-0.8,0.3c-0.2,0-0.3-0.2-0.3-0.5c0-0.7,0.2-1.3,0.7-1.7c0.5-0.4,0.9-0.6,1.1-0.7
			c0.2,0,0.4-0.1,0.4-0.3c0.1-0.1,0.2-0.3,0.4-0.4c0.2-0.1,0.5-0.3,0.8-0.6c0.3-0.3,0.6-0.5,1-0.7L410.6,425.7z"/>
		<path class="st1" d="M428.6,416.7l0.3-0.1l0.2-0.2h0l0.2,0.1h0c0.3,0,0.6-0.1,0.9-0.2c0.3-0.1,0.5-0.2,0.7-0.3
			c0.2-0.1,0.3-0.1,0.3-0.1c0,0,0.1,0,0.1,0l0.3,0c0.1,0,0.3-0.2,0.5-0.6s0.4-0.7,0.7-0.9c0.2-0.2,0.5-0.5,0.7-1.1
			c0.1-0.1,0.1-0.2,0.2-0.3s0.1-0.2,0.2-0.2c0.2,0,0.4-0.1,0.5-0.4c0.4-0.5,0.8-0.8,1.1-0.8c0.4,0,0.6,0.3,0.8,1l0.2,0.8
			c0,0,0,0.1-0.1,0.3c-0.1,0.2-0.1,0.4-0.1,0.6c0,0.2,0,0.3,0,0.4s0,0.1,0,0.2c0,0.1,0.1,0.2,0.4,0.2c0.1,0,0.2-0.1,0.5-0.2l0.1,0
			c0.1,0.1,0.3,0.1,0.4,0.1c0,0,0.2-0.1,0.6-0.2c0.4-0.1,0.6-0.2,0.7-0.2c0.1,0,0.3-0.1,0.5-0.2h0.3l0.2,0.1c0.1,0,0.2-0.1,0.4-0.2
			c0.2-0.1,0.5-0.2,1-0.2l0.3-0.1h0.1c0.5,0,0.7,0.2,0.7,0.6c0,0.1-0.1,0.2-0.2,0.5c-0.1,0.2-0.2,0.5-0.3,0.7l-1,1.2
			c-0.3,0.4-0.7,0.6-1,0.6c-0.1,0-0.2-0.2-0.5-0.6c0,0,0,0-0.1,0c-0.1,0-0.3,0-0.5,0.1c-0.2,0.1-0.3,0.1-0.4,0.1
			c0,0-0.4,0.1-1.1,0.3l-0.5,0.1c-0.1,0-0.2,0-0.4,0.1l-1.1,0.2c-0.4,0.2-0.7,0.5-0.9,1.1c0,0-0.1,0.1-0.2,0.2l-1,1.8
			c-0.3,0.1-0.5,0.3-0.6,0.6l-0.1,0.1c-0.2,0-0.3,0.1-0.4,0.3s-0.3,0.3-0.4,0.4l-0.4,0.6c-0.2,0.2-0.3,0.4-0.5,0.7
			c-0.2,0.2-0.3,0.5-0.3,0.8c-0.1,0.3-0.1,0.4-0.2,0.5s-0.1,0.1-0.1,0.2l-0.1,0.2c-0.2,0.2-0.3,0.4-0.3,0.6l0.1,0.3
			c-0.2,0.7-0.3,1.1-0.3,1.1c0,0,0,0.1,0,0.2v0.1c0,0.3-0.1,0.7-0.3,1.2l0,0.3l-0.1,1c0,0.1,0,0.4,0.1,0.7c-0.1,0.1-0.1,0.1-0.1,0.1
			c0,0.4,0.2,0.8,0.6,1.3c0.4,0.5,0.6,1.2,0.6,2.2c0,0.1,0,0.2-0.1,0.4s-0.1,0.3-0.1,0.5c0,0.2-0.1,0.4-0.3,0.6
			c-0.2,0.2-0.4,0.3-0.5,0.3c-0.8,0-1.3-0.6-1.7-1.7c-0.4-1.1-0.6-1.8-0.6-2.1l0-0.8l-0.1-0.4l0.1-1.9l-0.1-0.5l0.5-1.8v-0.7
			c0,0,0.1-0.1,0.3-0.3c0,0,0,0-0.1,0c-0.1,0-0.2,0.1-0.3,0.3c-0.1,0.2-0.3,0.3-0.5,0.5l-0.2,0.3c0,0-0.1-0.1-0.2-0.1
			c-0.1,0-0.3,0.4-0.7,1c-0.3,0-0.5,0.2-0.7,0.5c-0.2,0.3-0.4,0.5-0.7,0.5l-0.1,0c-0.1,0.4-0.3,0.6-0.6,0.6l-0.1,0
			c-0.2,0.5-0.4,0.7-0.7,0.7c-0.1,0.4-0.5,0.7-1.1,0.9c-0.1,0.2-0.2,0.3-0.4,0.4c-0.2,0.1-0.3,0.2-0.4,0.2c-0.1,0.1-0.1,0.1-0.2,0.1
			c-0.2,0-0.3-0.2-0.3-0.6c0-0.1,0-0.2,0.1-0.4c0.1-0.1,0.1-0.2,0.1-0.3c0,0-0.1-0.1-0.2-0.3c0-0.4,0.1-0.7,0.3-0.8
			c0.2-0.1,0.4-0.3,0.5-0.5c0.1-0.2,0.2-0.3,0.4-0.4c0.2-0.1,0.3-0.2,0.3-0.3c0-0.1,0.2-0.3,0.6-0.6s0.6-0.6,0.8-0.8
			c0.2-0.2,0.3-0.3,0.4-0.3l0.1-0.1c0-0.4,0.2-0.5,0.4-0.5l0.2-0.1l0-0.2l0.1-0.1h0.2l0.1-0.1c0-0.4,0.2-0.6,0.5-0.8
			c0.3-0.2,0.9-0.8,1.7-1.7s1.3-1.5,1.4-1.8c0.1-0.3,0.3-0.6,0.5-1c0.3-0.4,0.4-0.8,0.4-1.2c0-0.1-0.1-0.1-0.1-0.2l-0.9,0.5
			c0,0-0.1-0.1-0.4-0.2c-0.2,0.1-0.4,0.3-0.5,0.4c-0.1,0.1-0.2,0.2-0.2,0.2l-0.3,0l-0.9,0.1c-0.8,0.1-1.5,0.2-1.9,0.5l-0.9,0.3h-0.2
			c-0.1,0-0.3,0.1-0.5,0.2l-0.5,0c-0.5,0.2-0.8,0.4-1,0.4c0,0-0.1,0-0.3,0l-2.2,0.6c-0.2,0.1-0.6,0.4-1.2,0.9l-0.2,0
			c-0.1,0-0.3-0.2-0.5-0.5s-0.3-0.6-0.3-0.9c0-1.4,1.2-2.2,3.7-2.5l0.9-0.3h0l0.2,0.1h0.1c0.1,0,0.2-0.1,0.4-0.2s0.6-0.2,1.2-0.4
			l0.9-0.2l0.3,0c0.1,0,0.3-0.1,0.5-0.2c0.2-0.1,0.5-0.2,0.8-0.2c0.4,0,0.6-0.1,0.8-0.2l0.3-0.1c0.1,0,0.2,0,0.4-0.2
			c0.2-0.1,0.4-0.2,0.7-0.2C428.3,416.6,428.4,416.6,428.6,416.7z"/>
		<path class="st1" d="M450.6,430.9v0.2l0,0.2v0.1c0,0,0,0.2-0.1,0.5c-0.2,0.2-0.3,0.6-0.4,1l-0.3,0.4c0,0.2-0.1,0.4-0.2,0.5
			c-0.1,0.1-0.3,0.3-0.4,0.7c-0.1,0.3-0.2,0.7-0.4,1.1l-0.5,1.2c0,0.1,0,0.1,0.1,0.1c0,0,0.1,0,0.1,0c0.1,0,0.1,0,0.2,0
			c0.1,0,0.1,0,0.2,0c0.1,0,0.1,0,0.1,0s0.1,0,0.3-0.2c0.2-0.1,0.4-0.2,0.6-0.2l0.8-0.2c0.2-0.1,0.5-0.1,1.1-0.1l0.7,0
			c0.5,0,1.1,0.1,1.6,0.4c0.5,0.3,0.9,0.6,1,0.9s0.2,0.8,0.2,1.5c0,0.5-0.2,0.8-0.5,0.8c-0.2,0-0.5-0.1-0.8-0.4s-0.6-0.6-0.7-1
			c-0.1-0.4-0.3-0.6-0.6-0.6l-0.5-0.2l-0.3,0.1h-0.1c-0.1,0-0.2,0-0.4-0.1h-0.1l-0.6,0.2h-0.9l-0.4,0.2c-0.2,0.1-0.4,0.1-0.7,0.1
			c-0.2,0-0.4,0.1-0.6,0.2c-0.2,0.1-0.3,0.2-0.3,0.2c0,0.4-0.2,0.8-0.6,1.1c-0.1,0.2-0.2,0.4-0.2,0.5c0,0.1-0.1,0.3-0.2,0.5
			c-0.2,0.2-0.3,0.4-0.5,0.8l-0.2,0.3c-0.1,0.1-0.1,0.2-0.1,0.2c0,0,0,0.1,0,0.2v0.2c0,0.4-0.2,0.8-0.7,1.1v0.2
			c0,0.1-0.1,0.3-0.3,0.5l0.1,0.4c0,0.1-0.1,0.2-0.2,0.4c-0.2,0.2-0.3,0.4-0.4,0.6c-0.1,0.2-0.3,0.4-0.6,0.6v0.1l0.1,0.3
			c0,0,0.1,0,0.1,0.1c0,0.1-0.1,0.3-0.3,0.5c-0.1,0.2-0.2,0.5-0.3,0.7l-0.9,1.2c-0.1,0.2-0.2,0.4-0.2,0.5l-0.2,0.4
			c-0.2,0.1-0.3,0.3-0.3,0.4c-0.1,0.1-0.3,0.4-0.6,0.8c-0.3,0.4-0.5,0.6-0.6,0.6c0.1,0.2,0.1,0.3,0.1,0.3c0,0.2-0.1,0.4-0.3,0.6
			c-0.4,0-0.6,0.1-0.6,0.2l0.1,0.4c0,0.1-0.1,0.1-0.2,0.3c-0.2,0.1-0.3,0.2-0.4,0.2h-0.3l0.1,0.4c-0.1,0.2-0.1,0.3-0.3,0.3
			c-0.1,0.1-0.3,0.2-0.6,0.5c-0.3,0.3-0.5,0.4-0.6,0.5l-0.3,0.2l-0.8,0.1c-0.2-0.1-0.7-0.3-1.3-0.7c-0.7-0.4-1-0.8-1.1-1.1
			c-0.1-0.4-0.1-0.8-0.1-1.5c0-0.1,0.1-0.2,0.2-0.4l0-0.2v-0.4c0,0,0.1-0.3,0.2-0.8c0.1-0.5,0.3-0.7,0.4-0.8
			c0.1-0.1,0.3-0.3,0.5-0.8s0.4-0.9,0.5-1l2-2.9c0-0.2,0-0.3,0.1-0.4h0.1c0.1,0,0.2,0,0.2-0.1c0-0.1,0.1-0.2,0.2-0.3
			c0-0.3,0.1-0.5,0.4-0.7c0.3-0.2,0.4-0.4,0.5-0.6c0.1-0.2,0.2-0.4,0.4-0.6l0-0.1c0.1-0.1,0.2-0.1,0.4-0.2c0.2-0.1,0.3-0.2,0.3-0.3
			l0.7-0.7c0.1-0.1,0.2-0.1,0.3-0.2s0.3-0.2,0.5-0.5l0.2-0.1h0.1l0.1,0c0.2-0.4,0.3-0.6,0.5-0.6s0.3-0.1,0.4-0.1
			c0-0.4,0.2-0.7,0.8-0.7c0.1,0,0.2,0,0.3-0.1l0.5-0.4c0.1-0.1,0.2-0.3,0.4-0.8v0l0.4,0.1l0-0.1l-0.1-0.5c0-0.1,0.1-0.3,0.3-0.6
			s0.3-0.5,0.4-0.6c0.1-0.1,0.2-0.1,0.2-0.2v-0.3l0-0.3l0.1-0.2v-0.3l0-0.1c0.1-0.1,0.2-0.3,0.3-0.8c0.1-0.1,0.1-0.1,0.2-0.2l1-2.7
			c0-0.1,0.1-0.3,0.1-0.6l0.2-0.2c0.2-0.5,0.3-0.8,0.3-0.9c0-0.1,0-0.1-0.1-0.1s-0.2,0.1-0.4,0.2s-0.4,0.2-0.5,0.2l-0.3-0.1h-0.1
			c-0.1,0-0.2,0.1-0.4,0.2c-0.2,0.1-0.2,0.2-0.3,0.2l-0.3,0c-0.1,0.2-0.3,0.4-0.4,0.4l-0.5,0.3h0l-0.3-0.2c0,0,0,0-0.1,0
			c-0.1,0-0.1,0.2-0.3,0.5l-0.7,0.3c-0.1,0-0.2,0-0.3,0c-0.1,0-0.3,0.1-0.4,0.4s-0.3,0.4-0.5,0.4c-0.1,0.1-0.4,0.2-0.8,0.3l-1.3,0.9
			c-0.1,0.1-0.2,0.1-0.3,0.2c-0.3,0-0.6,0.2-0.8,0.5l-0.6,0c-0.1,0-0.3,0.1-0.4,0.3c-0.1,0.2-0.3,0.3-0.4,0.3h-0.1l-0.3,0l-0.7,0.2
			c-0.2,0-0.5-0.2-0.9-0.5s-0.6-0.6-0.6-0.8l-0.1-1c0,0,0.1-0.1,0.2-0.3c0.1-0.2,0.2-0.3,0.2-0.4c0,0,0-0.1,0-0.2v-0.2
			c0-0.5,0.2-1.1,0.5-1.8v-0.1c0-0.1,0-0.1-0.1-0.1c-0.2,0-0.3,0.2-0.5,0.5c-0.1,0.3-0.3,0.5-0.4,0.7c-0.2,0.1-0.3,0.2-0.4,0.3
			c-0.1,0.1-0.1,0.1-0.2,0.1c-0.1-0.1-0.2-0.1-0.3-0.1c0,0-0.1-0.1-0.1-0.3c-0.1-0.1-0.2-0.3-0.3-0.4s-0.2-0.3-0.2-0.5
			c0-0.2,0.2-0.4,0.6-0.6l0.3-0.3c0.7-0.7,1.1-1,1.3-1.1l0.1-0.3c0.2-0.2,0.4-0.4,0.7-0.7s0.6-0.5,0.8-0.6l1.2-1
			c0.3-0.3,0.8-0.5,1.4-0.5c0.5,0,0.7,0.3,0.7,0.9c0,0.6-0.1,1-0.3,1.4c-0.2,0.3-0.3,0.6-0.4,0.9c0,0.3-0.2,0.6-0.6,1.1
			c-0.3,0.4-0.5,0.8-0.6,1c-0.1,0.2-0.2,0.5-0.4,0.9c-0.2,0.4-0.3,0.7-0.3,1c0,0.1,0.1,0.2,0.3,0.2c0.2,0,0.6-0.1,0.9-0.4l0.2-0.1
			c0.1-0.1,0.3-0.1,0.4-0.2l0.5-0.2c0.1-0.2,0.3-0.4,0.5-0.4l0.4-0.2c0.2-0.1,0.4-0.2,0.7-0.3c0.3-0.1,0.5-0.3,0.6-0.4
			s0.2-0.2,0.3-0.3s0.3-0.2,0.5-0.4c0.4,0,0.9-0.3,1.5-1c0.7-0.4,1.3-0.8,1.8-1.1c0.6-0.4,1-0.7,1.1-0.8c0.1-0.1,0.2-0.1,0.5-0.2
			c0.2-0.1,0.5-0.3,0.8-0.5c0.3-0.2,0.6-0.3,1.1-0.3c0.4,0,0.7,0.1,1.1,0.4s0.5,0.6,0.5,0.8l0,1c0,0.7-0.2,1.2-0.5,1.7
			c-0.1,0.6-0.2,1-0.3,1.2l0,0.5C451.1,430.6,450.9,430.7,450.6,430.9z M440.4,447.4l0.1-0.3c0-0.1,0.1-0.2,0.3-0.3
			c0.1-0.6,0.3-1,0.6-1.2c0-0.3,0-0.5,0-0.5l0.3-0.3l0.8-1.4c0.1-0.2,0.2-0.4,0.3-0.6c0.1-0.2,0.2-0.4,0.2-0.5
			c0-0.2,0.2-0.6,0.7-1.2v-0.2c0-0.2,0-0.3-0.1-0.3c-0.1,0.1-0.2,0.2-0.4,0.3l-1.4,1.2c-0.1,0.1-0.3,0.3-0.6,0.7l-0.4,0.4
			c-0.2,0.2-0.4,0.4-0.5,0.5s-0.3,0.3-0.5,0.6c-0.2,0.3-0.3,0.5-0.5,0.5h-0.1c0,0-0.1,0-0.2-0.1c-0.1,0-0.1,0.1-0.1,0.2l0.1,0.5
			c0,0.1-0.1,0.1-0.2,0.3c-0.1,0.1-0.2,0.3-0.3,0.4s-0.2,0.2-0.2,0.3s-0.2,0.3-0.5,0.8l-0.4,0.2c0,0.8-0.3,1.5-0.8,2
			c-0.1,0.2-0.2,0.5-0.3,0.7c-0.1,0.2-0.1,0.4-0.2,0.4c-0.1,0.5-0.2,0.8-0.5,0.9c-0.1,0-0.1,0.1-0.1,0.1c0,0.1,0.1,0.2,0.2,0.3
			l0.1,0.1c-0.2,0.6-0.3,1-0.3,1.2c0,0.1,0,0.1,0.1,0.1l0.6-0.3c0.5-0.2,0.8-0.5,0.9-0.8l0.3-0.7c0.1-0.1,0.2-0.1,0.3-0.2
			c0.1-0.3,0.2-0.5,0.4-0.6s0.3-0.2,0.3-0.3s0.3-0.6,0.8-1.5S440.4,447.5,440.4,447.4z"/>
	</g>
	<path id="Exclusion_1" class="st2" d="M356.5,446.9L356.5,446.9c-2.7-2.4-5.3-4.9-7.8-7.6c-2-2.2-3.8-4.5-5.3-7
		c-1.4-2.1-2.2-4.5-2.4-7c0-4.1,1.6-8.1,4.5-11c6-6.1,15.8-6.1,21.9,0c1.4,1.4,2.6,3.1,3.4,5s1.2,4,1.2,6.1c-0.2,2.5-1,4.9-2.4,7
		c-1.6,2.5-3.3,4.9-5.3,7C361.8,442,359.2,444.6,356.5,446.9z M356.7,418.2c-3.3,0-6,2.6-6,5.9s2.6,6,5.9,6s6-2.6,6-5.9l0,0
		C362.6,420.9,360,418.2,356.7,418.2L356.7,418.2z"/>
</g>
</svg>
