<svg xmlns="http://www.w3.org/2000/svg" width="157" height="55" viewBox="0 0 157 55">
  <g id="Group_355" data-name="Group 355" transform="translate(-526 -32)">
    <text id="pr_perty" data-name="pr   perty" transform="translate(531 69)" fill="#fff" font-size="44" font-family="RageItalic, Rage"><tspan x="0" y="0" xml:space="preserve">pr   perty</tspan></text>
    <path id="Exclusion_1" data-name="Exclusion 1" d="M15.5,37.242h0a86.5,86.5,0,0,1-7.75-7.581A47.026,47.026,0,0,1,2.422,22.63,14.348,14.348,0,0,1,0,15.613,15.621,15.621,0,0,1,4.54,4.573,15.478,15.478,0,0,1,29.782,9.536,15.613,15.613,0,0,1,31,15.613a14.348,14.348,0,0,1-2.422,7.017,47.027,47.027,0,0,1-5.328,7.031,86.5,86.5,0,0,1-7.75,7.581Zm.157-28.725a5.993,5.993,0,1,0,5.949,5.993A5.978,5.978,0,0,0,15.657,8.516Z" transform="translate(568 40.879)" fill="#d1a570"/>
  </g>
</svg>
